<svg version="1.1" id="Layer_1" xmlns="http://www.w3.org/2000/svg" xmlns:xlink="http://www.w3.org/1999/xlink" x="0px" y="0px"
	 width="100%" viewBox="0 0 240 240" enable-background="new 0 0 240 240" xml:space="preserve">
<path fill="#FFFFFF" opacity="1.000000" stroke="none" 
	d="
M125.000000,1.000000 
	C163.630096,1.000000 202.260208,1.000000 240.945160,1.000000 
	C240.945160,80.887741 240.945160,160.775543 240.945160,241.000000 
	C205.646484,241.000000 170.291901,241.000000 134.403198,240.640839 
	C134.952820,239.331161 135.913376,238.166550 137.138428,237.461624 
	C162.494812,222.871658 187.933243,208.423553 213.236649,193.742661 
	C223.633743,187.710312 229.160446,178.776962 229.066605,166.312393 
	C228.844833,136.854660 228.968201,107.394051 229.015366,77.934708 
	C229.034348,66.079185 224.074921,57.236950 213.726181,51.324375 
	C199.150726,42.996925 184.774551,34.313839 170.089661,26.186687 
	C155.450851,18.085045 140.531830,10.489992 125.764603,2.618551 
	C125.342171,2.393384 125.247498,1.553342 125.000000,1.000000 
z"/>
<path fill="#FFFFFF" opacity="1.000000" stroke="none" 
	d="
M108.000000,241.000000 
	C72.367050,241.000000 36.734104,241.000000 1.050578,241.000000 
	C1.050578,161.109375 1.050578,81.218712 1.050578,1.000000 
	C39.353603,1.000000 77.708145,1.000000 116.551849,1.382528 
	C112.422035,3.841537 107.596443,5.555917 103.218147,8.054198 
	C77.809486,22.552517 52.480156,37.190647 27.180614,51.879002 
	C17.826651,57.309711 12.921165,65.418312 12.944487,76.441483 
	C13.009278,107.066132 12.953568,137.691025 12.975810,168.315796 
	C12.984062,179.678101 18.298576,187.919220 28.028858,193.489929 
	C53.848030,208.271729 79.678528,223.033859 105.458115,237.884384 
	C106.543495,238.509613 107.163307,239.943069 108.000000,241.000000 
z"/>
<path fill="#FAF8FA" opacity="1.000000" stroke="none" 
	d="
M125.000000,241.000000 
	C122.957680,241.000000 120.915367,241.000000 118.302742,240.668518 
	C114.266068,238.594376 110.708954,237.010071 107.347748,235.083878 
	C81.357872,220.189987 55.442169,205.166351 29.422668,190.324600 
	C20.199497,185.063629 16.205132,176.971619 16.160162,166.802719 
	C16.031179,137.638062 16.066591,108.472435 16.123796,79.307350 
	C16.145620,68.181252 20.180269,59.230591 30.584095,53.937374 
	C32.954346,52.731453 35.220165,51.319397 37.527710,49.991203 
	C60.460251,36.791534 83.438156,23.669697 106.301605,10.351395 
	C116.385284,4.477500 126.058945,4.843290 136.019714,10.660889 
	C157.286865,23.081989 178.677139,35.292343 200.021713,47.580772 
	C202.761963,49.158375 205.438553,50.886688 208.301636,52.203945 
	C221.771500,58.401211 226.071243,69.588142 225.898209,83.499107 
	C225.537827,112.474022 225.591507,141.457642 224.822128,170.420334 
	C224.697388,175.116577 222.274750,180.730026 219.035919,184.130478 
	C214.456314,188.938583 208.378799,192.521866 202.504791,195.860214 
	C177.366699,210.146667 152.061066,224.138260 126.859299,238.313416 
	C126.005836,238.793457 125.609444,240.086121 125.000000,241.000000 
M216.752670,178.862061 
	C217.832977,175.086044 219.817734,171.317841 219.850418,167.532761 
	C220.110138,137.453003 220.099182,107.369278 219.864120,77.289169 
	C219.837341,73.861588 217.915375,70.448822 216.731094,66.374100 
	C212.900558,63.266769 209.394531,59.604256 205.185699,57.144138 
	C181.642502,43.382877 157.787766,30.150749 134.344193,16.224833 
	C124.956696,10.648491 116.645813,10.745116 107.326218,16.245754 
	C82.982658,30.613888 58.407368,44.593426 33.804058,58.515102 
	C26.108130,62.869820 22.065277,68.962425 22.077646,77.831406 
	C22.119194,107.620369 22.019598,137.409973 22.225107,167.197601 
	C22.247810,170.488281 23.887442,173.767822 24.914698,177.749893 
	C27.488611,180.253387 29.686314,183.400681 32.695568,185.159180 
	C58.271610,200.104813 84.028214,214.741013 109.654480,229.601395 
	C117.245430,234.003311 124.555176,234.425827 132.270798,229.929443 
	C158.147247,214.849640 184.125504,199.944443 209.987350,184.839813 
	C212.325775,183.474045 214.107498,181.155106 216.752670,178.862061 
z"/>
<path fill="#B9B9B9" opacity="1.000000" stroke="none" 
	d="
M125.449982,241.000000 
	C125.609444,240.086121 126.005836,238.793457 126.859299,238.313416 
	C152.061066,224.138260 177.366699,210.146667 202.504791,195.860214 
	C208.378799,192.521866 214.456314,188.938583 219.035919,184.130478 
	C222.274750,180.730026 224.697388,175.116577 224.822128,170.420334 
	C225.591507,141.457642 225.537827,112.474022 225.898209,83.499107 
	C226.071243,69.588142 221.771500,58.401211 208.301636,52.203945 
	C205.438553,50.886688 202.761963,49.158375 200.021713,47.580772 
	C178.677139,35.292343 157.286865,23.081989 136.019714,10.660889 
	C126.058945,4.843290 116.385284,4.477500 106.301605,10.351395 
	C83.438156,23.669697 60.460251,36.791534 37.527710,49.991203 
	C35.220165,51.319397 32.954346,52.731453 30.584095,53.937374 
	C20.180269,59.230591 16.145620,68.181252 16.123796,79.307350 
	C16.066591,108.472435 16.031179,137.638062 16.160162,166.802719 
	C16.205132,176.971619 20.199497,185.063629 29.422668,190.324600 
	C55.442169,205.166351 81.357872,220.189987 107.347748,235.083878 
	C110.708954,237.010071 114.266068,238.594376 117.866219,240.668518 
	C114.969406,241.000000 111.938812,241.000000 108.454109,241.000000 
	C107.163307,239.943069 106.543495,238.509613 105.458115,237.884384 
	C79.678528,223.033859 53.848030,208.271729 28.028858,193.489929 
	C18.298576,187.919220 12.984062,179.678101 12.975810,168.315796 
	C12.953568,137.691025 13.009278,107.066132 12.944487,76.441483 
	C12.921165,65.418312 17.826651,57.309711 27.180614,51.879002 
	C52.480156,37.190647 77.809486,22.552517 103.218147,8.054198 
	C107.596443,5.555917 112.422035,3.841537 117.020508,1.382528 
	C119.370560,1.000000 121.741112,1.000000 124.555832,1.000000 
	C125.247498,1.553342 125.342171,2.393384 125.764603,2.618551 
	C140.531830,10.489992 155.450851,18.085045 170.089661,26.186687 
	C184.774551,34.313839 199.150726,42.996925 213.726181,51.324375 
	C224.074921,57.236950 229.034348,66.079185 229.015366,77.934708 
	C228.968201,107.394051 228.844833,136.854660 229.066605,166.312393 
	C229.160446,178.776962 223.633743,187.710312 213.236649,193.742661 
	C187.933243,208.423553 162.494812,222.871658 137.138428,237.461624 
	C135.913376,238.166550 134.952820,239.331161 133.934540,240.640839 
	C131.299988,241.000000 128.599976,241.000000 125.449982,241.000000 
z"/>
<path fill="#9C5097" opacity="1.000000" stroke="none" 
	d="
M24.777159,177.052521 
	C23.887442,173.767822 22.247810,170.488281 22.225107,167.197601 
	C22.019598,137.409973 22.119194,107.620369 22.077646,77.831406 
	C22.065277,68.962425 26.108130,62.869820 33.804058,58.515102 
	C58.407368,44.593426 82.982658,30.613888 107.326218,16.245754 
	C116.645813,10.745116 124.956696,10.648491 134.344193,16.224833 
	C157.787766,30.150749 181.642502,43.382877 205.185699,57.144138 
	C209.394531,59.604256 212.900558,63.266769 216.460220,66.746964 
	C209.668732,70.957993 203.223907,74.933189 196.605118,78.593857 
	C190.596817,81.916878 184.399155,84.897499 178.041611,87.776123 
	C160.846252,63.035175 137.652664,53.023548 108.283890,58.015488 
	C76.111382,63.483986 52.229988,95.898643 55.705208,128.417252 
	C56.753212,138.223709 59.987267,147.121750 63.912102,155.874176 
	C57.468342,159.342636 51.426743,162.787537 45.318192,166.109314 
	C38.502907,169.815399 31.626799,173.409622 24.777159,177.052521 
z"/>
<path fill="#69237B" opacity="1.000000" stroke="none" 
	d="
M24.845928,177.401215 
	C31.626799,173.409622 38.502907,169.815399 45.318192,166.109314 
	C51.426743,162.787537 57.468342,159.342636 64.170883,156.083694 
	C81.011826,181.039047 107.407860,192.670349 135.025681,186.910080 
	C153.535080,183.049576 167.573502,172.555801 178.411499,157.001587 
	C179.907227,157.242676 181.160248,157.234177 182.102554,157.771072 
	C192.314163,163.589294 202.509720,169.438019 212.616074,175.436096 
	C214.048828,176.286438 214.982880,177.977097 216.147751,179.278824 
	C214.107498,181.155106 212.325775,183.474045 209.987350,184.839813 
	C184.125504,199.944443 158.147247,214.849640 132.270798,229.929443 
	C124.555176,234.425827 117.245430,234.003311 109.654480,229.601395 
	C84.028214,214.741013 58.271610,200.104813 32.695568,185.159180 
	C29.686314,183.400681 27.488611,180.253387 24.845928,177.401215 
z"/>
<path fill="#823988" opacity="1.000000" stroke="none" 
	d="
M216.450211,179.070435 
	C214.982880,177.977097 214.048828,176.286438 212.616074,175.436096 
	C202.509720,169.438019 192.314163,163.589294 182.102554,157.771072 
	C181.160248,157.234177 179.907227,157.242676 178.385498,156.642517 
	C168.655228,150.870544 159.337921,145.453995 149.864578,139.730072 
	C140.443344,133.898193 131.178146,128.373703 121.993919,122.517769 
	C122.810371,121.573112 123.479919,120.849831 124.291504,120.363617 
	C132.843353,115.240242 141.417862,110.154701 150.349731,105.034607 
	C159.396591,100.138031 168.095413,95.292709 176.734741,90.343567 
	C177.456558,89.930054 177.777695,88.817078 178.284988,88.029076 
	C184.399155,84.897499 190.596817,81.916878 196.605118,78.593857 
	C203.223907,74.933189 209.668732,70.957993 216.530762,67.074501 
	C217.915375,70.448822 219.837341,73.861588 219.864120,77.289169 
	C220.099182,107.369278 220.110138,137.453003 219.850418,167.532761 
	C219.817734,171.317841 217.832977,175.086044 216.450211,179.070435 
M207.749619,130.656158 
	C207.555161,129.711365 207.516418,128.012436 207.142792,127.935280 
	C201.824265,126.836983 203.795227,122.922737 203.674179,119.393715 
	C208.960464,119.657448 208.328888,115.712502 207.531433,112.967461 
	C206.849121,110.618721 204.813370,108.129196 202.684555,106.894508 
	C200.799408,105.801147 197.961594,106.350388 195.653229,106.182396 
	C194.515015,110.350914 190.546158,112.165070 187.370392,110.260246 
	C186.974686,109.042267 186.540161,107.704765 186.158112,106.528816 
	C183.391937,106.528816 180.948059,106.528816 178.656448,106.528816 
	C178.143127,108.020058 177.915894,110.149261 177.288345,110.274635 
	C171.398697,111.451279 174.916885,115.598351 174.048691,118.615120 
	C180.655487,118.987083 177.177856,123.551094 177.695389,125.151039 
	C176.094696,127.416779 174.470764,128.784882 174.170013,130.399460 
	C173.861313,132.056610 174.470612,134.179169 175.370590,135.683914 
	C176.263138,137.176239 178.018631,138.152451 180.007721,139.889542 
	C181.311264,139.889542 183.624817,139.889542 186.243637,139.889542 
	C186.613571,133.798309 191.000946,136.288727 194.798019,135.910370 
	C193.854858,142.009323 198.930191,140.804199 200.823105,139.720520 
	C203.781754,138.026718 207.923691,136.274643 207.749619,130.656158 
z"/>
<path fill="#FEFDFE" opacity="1.000000" stroke="none" 
	d="
M150.020630,140.037445 
	C159.337921,145.453995 168.655228,150.870544 177.998520,156.646164 
	C167.573502,172.555801 153.535080,183.049576 135.025681,186.910080 
	C107.407860,192.670349 81.011826,181.039047 64.543518,156.005829 
	C59.987267,147.121750 56.753212,138.223709 55.705208,128.417252 
	C52.229988,95.898643 76.111382,63.483986 108.283890,58.015488 
	C137.652664,53.023548 160.846252,63.035175 178.041611,87.776123 
	C177.777695,88.817078 177.456558,89.930054 176.734741,90.343567 
	C168.095413,95.292709 159.396591,100.138031 150.197815,104.734207 
	C148.771942,103.271118 147.903076,102.049637 146.944870,100.902794 
	C135.957138,87.751900 115.881889,85.423569 101.939377,95.669296 
	C87.961700,105.940849 84.069382,124.730186 93.021973,139.390808 
	C107.389961,161.246262 134.570465,161.395737 150.020630,140.037445 
z"/>
<path fill="#9C5197" opacity="1.000000" stroke="none" 
	d="
M92.951309,139.057220 
	C84.069382,124.730186 87.961700,105.940849 101.939377,95.669296 
	C115.881889,85.423569 135.957138,87.751900 146.944870,100.902794 
	C147.903076,102.049637 148.771942,103.271118 149.834213,104.758316 
	C141.417862,110.154701 132.843353,115.240242 124.291504,120.363617 
	C123.479919,120.849831 122.810371,121.573112 121.627922,122.555969 
	C111.771072,128.302795 102.361191,133.680008 92.951309,139.057220 
z"/>
<path fill="#6A237B" opacity="1.000000" stroke="none" 
	d="
M93.021973,139.390808 
	C102.361191,133.680008 111.771072,128.302795 121.546959,122.887405 
	C131.178146,128.373703 140.443344,133.898193 149.864578,139.730072 
	C134.570465,161.395737 107.389961,161.246262 93.021973,139.390808 
z"/>
<path fill="#FAF7FA" opacity="1.000000" stroke="none" 
	d="
M207.750214,131.082458 
	C207.923691,136.274643 203.781754,138.026718 200.823105,139.720520 
	C198.930191,140.804199 193.854858,142.009323 194.798019,135.910370 
	C191.000946,136.288727 186.613571,133.798309 186.243637,139.889542 
	C183.624817,139.889542 181.311264,139.889542 180.007721,139.889542 
	C178.018631,138.152451 176.263138,137.176239 175.370590,135.683914 
	C174.470612,134.179169 173.861313,132.056610 174.170013,130.399460 
	C174.470764,128.784882 176.094696,127.416779 177.695389,125.151039 
	C177.177856,123.551094 180.655487,118.987083 174.048691,118.615120 
	C174.916885,115.598351 171.398697,111.451279 177.288345,110.274635 
	C177.915894,110.149261 178.143127,108.020058 178.656448,106.528816 
	C180.948059,106.528816 183.391937,106.528816 186.158112,106.528816 
	C186.540161,107.704765 186.974686,109.042267 187.370392,110.260246 
	C190.546158,112.165070 194.515015,110.350914 195.653229,106.182396 
	C197.961594,106.350388 200.799408,105.801147 202.684555,106.894508 
	C204.813370,108.129196 206.849121,110.618721 207.531433,112.967461 
	C208.328888,115.712502 208.960464,119.657448 203.674179,119.393715 
	C203.795227,122.922737 201.824265,126.836983 207.142792,127.935280 
	C207.516418,128.012436 207.555161,129.711365 207.750214,131.082458 
M194.961319,121.653740 
	C193.578003,116.243080 189.798111,120.163506 187.158783,119.173630 
	C187.158783,122.056877 187.158783,124.459465 187.158783,127.056717 
	C189.774734,127.056717 192.046097,127.056717 194.684830,127.056717 
	C194.783768,125.475365 194.874252,124.029030 194.961319,121.653740 
z"/>
<path fill="#843B89" opacity="1.000000" stroke="none" 
	d="
M194.963028,122.118225 
	C194.874252,124.029030 194.783768,125.475365 194.684830,127.056717 
	C192.046097,127.056717 189.774734,127.056717 187.158783,127.056717 
	C187.158783,124.459465 187.158783,122.056877 187.158783,119.173630 
	C189.798111,120.163506 193.578003,116.243080 194.963028,122.118225 
z"/>
</svg>