<svg version="1.1" id="Layer_1" xmlns="http://www.w3.org/2000/svg" xmlns:xlink="http://www.w3.org/1999/xlink" x="0px" y="0px"
	 width="100%" viewBox="0 0 240 240" enable-background="new 0 0 240 240" xml:space="preserve">
<path fill="#FFFFFF" opacity="1.000000" stroke="none" 
	d="
M161.000000,241.000000 
	C107.333336,241.000000 54.166672,241.000000 1.000007,241.000000 
	C1.000005,161.000015 1.000005,81.000015 1.000002,1.000018 
	C80.999985,1.000012 160.999969,1.000012 240.999969,1.000006 
	C240.999969,80.999985 240.999969,160.999969 240.999985,240.999969 
	C214.500000,241.000000 188.000000,241.000000 161.000000,241.000000 
M73.022606,170.857651 
	C73.071716,173.233047 73.120827,175.608459 73.013565,178.910889 
	C73.009361,183.405472 72.988716,187.900101 73.004623,192.394608 
	C73.031433,199.972290 75.947906,202.921143 83.589302,202.934540 
	C101.734161,202.966385 119.879105,202.944199 138.024017,202.942581 
	C158.166534,202.940781 178.309097,202.960953 198.451538,202.921082 
	C204.669067,202.908783 208.584900,199.862381 208.650696,194.448837 
	C208.782043,183.642685 208.528656,172.831848 208.680801,161.111374 
	C208.583237,147.442688 208.485657,133.774002 208.683960,119.199501 
	C208.629669,106.147934 208.575363,93.096367 208.738678,79.127090 
	C208.757355,69.003113 208.826401,58.878883 208.775482,48.755253 
	C208.745773,42.851196 205.436951,39.092213 199.781570,39.068600 
	C180.866226,38.989616 161.949966,39.126701 142.096603,39.055695 
	C122.442764,39.045696 102.788864,39.003891 83.135117,39.042755 
	C76.149658,39.056564 73.020981,42.181305 73.012032,49.043182 
	C73.002472,56.367439 73.114883,63.691853 73.027824,71.828621 
	C72.982208,73.203552 72.936592,74.578491 72.257111,76.019096 
	C71.841331,76.088501 71.425545,76.157906 70.086868,76.044708 
	C61.103832,76.039116 52.119778,75.949448 43.138119,76.057907 
	C37.292080,76.128502 33.405281,79.561150 33.337410,85.125839 
	C33.207729,95.758316 33.458878,106.395432 33.322842,117.936287 
	C33.403881,129.621658 33.484921,141.307037 33.324856,153.779343 
	C33.214622,164.186554 35.860458,166.940079 46.041115,166.927551 
	C48.697197,166.924286 51.353127,166.790619 54.928272,166.898636 
	C60.934208,166.944794 66.940140,166.990936 72.986267,167.775330 
	C73.050789,168.509888 73.115311,169.244461 73.022606,170.857651 
z"/>
<path fill="#195D38" opacity="1.000000" stroke="none" 
	d="
M208.434158,162.022949 
	C208.528656,172.831848 208.782043,183.642685 208.650696,194.448837 
	C208.584900,199.862381 204.669067,202.908783 198.451538,202.921082 
	C178.309097,202.960953 158.166534,202.940781 138.024017,202.942581 
	C119.879105,202.944199 101.734161,202.966385 83.589302,202.934540 
	C75.947906,202.921143 73.031433,199.972290 73.004623,192.394608 
	C72.988716,187.900101 73.009361,183.405472 73.549423,178.454025 
	C88.382927,178.000916 102.680565,178.006454 116.978210,178.007751 
	C125.802902,178.008560 127.043709,176.758835 126.967392,167.514481 
	C126.998581,151.690872 127.019409,136.333832 127.436630,120.982834 
	C128.894775,120.979279 129.956528,120.969673 131.477722,120.967651 
	C135.627411,120.977982 139.317627,120.980721 143.009247,121.453156 
	C143.010391,133.683029 143.132019,145.445251 142.936722,157.202179 
	C142.877014,160.797226 143.770874,162.246094 147.624252,162.079910 
	C154.402969,161.787582 161.202957,161.988480 168.463226,161.989746 
	C176.287369,161.993896 183.642319,161.991165 191.464798,161.992310 
	C197.432938,162.005112 202.933548,162.014038 208.434158,162.022949 
z"/>
<path fill="#37C282" opacity="1.000000" stroke="none" 
	d="
M143.034058,39.181034 
	C161.949966,39.126701 180.866226,38.989616 199.781570,39.068600 
	C205.436951,39.092213 208.745773,42.851196 208.775482,48.755253 
	C208.826401,58.878883 208.757355,69.003113 208.194092,79.572647 
	C186.462723,79.983635 165.275970,79.949074 144.059143,79.455978 
	C144.018036,67.637138 144.051025,56.276463 143.953049,44.916924 
	C143.936523,43.002460 143.354691,41.092876 143.034058,39.181034 
z"/>
<path fill="#21A366" opacity="1.000000" stroke="none" 
	d="
M144.089203,79.914520 
	C165.275970,79.949074 186.462723,79.983635 208.085281,80.031494 
	C208.575363,93.096367 208.629669,106.147934 208.109406,119.645218 
	C201.363373,120.131752 195.191879,120.172562 188.552399,120.151245 
	C181.064911,120.115036 174.045395,120.140961 166.557556,120.124741 
	C158.707428,120.063721 151.325623,120.044846 143.952515,119.554604 
	C143.948578,106.080681 143.935959,93.078140 143.964630,80.035141 
	C144.005920,79.994698 144.089203,79.914520 144.089203,79.914520 
z"/>
<path fill="#21A366" opacity="1.000000" stroke="none" 
	d="
M142.565338,39.118362 
	C143.354691,41.092876 143.936523,43.002460 143.953049,44.916924 
	C144.051025,56.276463 144.018036,67.637138 144.059143,79.455978 
	C144.089203,79.914520 144.005920,79.994698 143.511307,80.002014 
	C139.013504,79.980988 135.010300,79.952637 130.965118,79.569412 
	C129.027527,76.886398 127.560524,73.760582 125.118896,72.448708 
	C122.545074,71.065811 119.043457,71.089851 115.942314,71.063004 
	C101.687157,70.939568 87.430290,71.013245 73.174042,71.016197 
	C73.114883,63.691853 73.002472,56.367439 73.012032,49.043182 
	C73.020981,42.181305 76.149658,39.056564 83.135117,39.042755 
	C102.788864,39.003891 122.442764,39.045696 142.565338,39.118362 
z"/>
<path fill="#10733C" opacity="1.000000" stroke="none" 
	d="
M72.946075,167.037079 
	C66.940140,166.990936 60.934208,166.944794 54.475140,166.460892 
	C54.289856,165.263290 54.336288,164.266266 54.858421,163.778763 
	C64.258041,155.002762 73.715111,146.288284 83.460442,137.779785 
	C86.995010,145.222183 88.210754,145.781555 98.952530,144.756989 
	C96.116516,139.793686 93.362755,134.974304 90.925339,129.975510 
	C92.104034,128.422409 92.754608,126.840813 93.864609,125.710297 
	C99.265900,120.209175 105.038391,115.052597 110.193069,109.335495 
	C114.391693,104.678741 120.669342,101.698479 122.333496,94.872513 
	C122.431526,94.470421 123.399300,94.280373 123.976608,94.460968 
	C124.004677,103.624245 124.018463,112.318184 124.024567,121.465302 
	C123.999458,124.944206 123.982025,127.969925 123.618813,131.054626 
	C122.881210,131.395950 122.279617,131.594452 122.128311,131.972946 
	C118.559860,140.899796 110.652306,146.001755 104.294891,152.502396 
	C99.903221,156.993011 96.069283,162.029083 91.520645,166.863525 
	C85.018814,166.949463 78.982445,166.993271 72.946075,167.037079 
z"/>
<path fill="#147C44" opacity="1.000000" stroke="none" 
	d="
M33.565960,152.992416 
	C33.484921,141.307037 33.403881,129.621658 33.766075,117.468842 
	C39.082706,112.557304 43.762173,107.869850 48.908779,103.768608 
	C51.608494,101.617233 55.126923,100.493263 58.528091,99.123108 
	C61.792786,104.529305 64.399765,110.015335 67.930618,114.822830 
	C71.499924,119.682693 70.539299,123.427620 66.442978,127.153183 
	C64.366394,127.422462 62.145630,127.264526 61.038860,128.298737 
	C56.251793,132.771988 51.990379,137.813217 47.150719,142.223083 
	C42.889465,146.105881 38.114216,149.424591 33.565960,152.992416 
z"/>
<path fill="#147D45" opacity="1.000000" stroke="none" 
	d="
M71.009766,76.227318 
	C71.425545,76.157906 71.841331,76.088501 73.049629,76.000580 
	C84.895851,75.992004 95.949554,76.001953 106.997978,76.375809 
	C103.094513,81.227058 99.114159,85.646881 95.341545,90.237434 
	C93.973175,91.902481 93.101257,93.975540 91.633324,95.953827 
	C89.809608,97.101944 87.871254,97.856667 86.989349,99.270401 
	C84.001411,104.060204 81.387421,109.083282 78.285027,114.635612 
	C76.618759,111.397186 74.908775,109.043869 74.147934,106.415779 
	C71.728897,98.059837 66.708527,94.164421 57.640484,95.723839 
	C57.982845,93.767845 58.164173,91.709099 59.250359,90.402657 
	C61.671402,87.490662 64.686638,85.078514 67.181122,82.219574 
	C68.722237,80.453293 69.750992,78.239960 71.009766,76.227318 
z"/>
<path fill="#19834B" opacity="1.000000" stroke="none" 
	d="
M70.548325,76.136017 
	C69.750992,78.239960 68.722237,80.453293 67.181122,82.219574 
	C64.686638,85.078514 61.671402,87.490662 59.250359,90.402657 
	C58.164173,91.709099 57.982845,93.767845 57.525589,96.090240 
	C57.865383,97.431961 58.070507,98.168640 58.275627,98.905319 
	C55.126923,100.493263 51.608494,101.617233 48.908779,103.768608 
	C43.762173,107.869850 39.082706,112.557304 33.880630,117.016006 
	C33.458878,106.395432 33.207729,95.758316 33.337410,85.125839 
	C33.405281,79.561150 37.292080,76.128502 43.138119,76.057907 
	C52.119778,75.949448 61.103832,76.039116 70.548325,76.136017 
z"/>
<path fill="#137841" opacity="1.000000" stroke="none" 
	d="
M33.445408,153.385880 
	C38.114216,149.424591 42.889465,146.105881 47.150719,142.223083 
	C51.990379,137.813217 56.251793,132.771988 61.038860,128.298737 
	C62.145630,127.264526 64.366394,127.422462 66.331299,127.504303 
	C63.212566,133.443100 59.837067,138.909393 56.067669,145.013580 
	C58.447895,145.013580 60.088184,144.793076 61.646763,145.056320 
	C65.769829,145.752670 68.334732,144.317154 70.045128,140.389587 
	C71.926964,136.068359 74.392876,132.001495 77.169930,126.755333 
	C79.468475,130.901688 81.314186,134.231171 83.159897,137.560654 
	C73.715111,146.288284 64.258041,155.002762 54.858421,163.778763 
	C54.336288,164.266266 54.289856,165.263290 54.015564,166.369995 
	C51.353127,166.790619 48.697197,166.924286 46.041115,166.927551 
	C35.860458,166.940079 33.214622,164.186554 33.445408,153.385880 
z"/>
<path fill="#0E7039" opacity="1.000000" stroke="none" 
	d="
M189.020401,120.213364 
	C195.191879,120.172562 201.363373,120.131752 207.961456,120.098129 
	C208.485657,133.774002 208.583237,147.442688 208.557480,161.567169 
	C202.933548,162.014038 197.432938,162.005112 191.465790,161.543610 
	C190.339645,147.465149 189.680023,133.839249 189.020401,120.213364 
z"/>
<path fill="#124529" opacity="1.000000" stroke="none" 
	d="
M126.957039,167.981033 
	C127.043709,176.758835 125.802902,178.008560 116.978210,178.007751 
	C102.680565,178.006454 88.382927,178.000916 73.627609,177.990509 
	C73.120827,175.608459 73.071716,173.233047 73.558342,170.423279 
	C89.056648,169.986710 104.019218,169.984528 119.372559,169.989059 
	C122.161224,169.324173 124.559135,168.652603 126.957039,167.981033 
z"/>
<path fill="#1D8E58" opacity="1.000000" stroke="none" 
	d="
M107.003258,76.011902 
	C95.949554,76.001953 84.895851,75.992004 73.366562,75.967743 
	C72.936592,74.578491 72.982208,73.203552 73.100937,71.422409 
	C87.430290,71.013245 101.687157,70.939568 115.942314,71.063004 
	C119.043457,71.089851 122.545074,71.065811 125.118896,72.448708 
	C127.560524,73.760582 129.027527,76.886398 130.963394,79.598450 
	C131.003662,79.982376 131.002686,80.038750 130.594147,80.027176 
	C129.097198,80.046082 128.008789,80.076561 126.694077,80.075897 
	C126.467781,80.044769 126.014572,79.977768 125.854477,79.656296 
	C123.285133,78.223618 120.963593,76.509277 118.445976,76.143097 
	C114.704521,75.598930 110.824379,76.008339 107.003258,76.011902 
z"/>
<path fill="#092817" opacity="1.000000" stroke="none" 
	d="
M118.981789,169.982361 
	C104.019218,169.984528 89.056648,169.986710 73.636955,169.983948 
	C73.115311,169.244461 73.050789,168.509888 72.966171,167.406219 
	C78.982445,166.993271 85.018814,166.949463 91.988136,166.918976 
	C101.945061,166.583984 110.969040,166.235672 119.968002,166.241577 
	C119.622589,167.724655 119.302193,168.853500 118.981789,169.982361 
z"/>
<path fill="#137B43" opacity="1.000000" stroke="none" 
	d="
M143.943832,120.025978 
	C151.325623,120.044846 158.707428,120.063721 166.540741,120.505913 
	C167.102768,127.784386 167.169052,134.640610 167.336212,141.494370 
	C167.502838,148.325150 167.770599,155.153442 167.994034,161.982834 
	C161.202957,161.988480 154.402969,161.787582 147.624252,162.079910 
	C143.770874,162.246094 142.877014,160.797226 142.936722,157.202179 
	C143.132019,145.445251 143.010391,133.683029 143.108856,121.243805 
	C143.391144,120.301056 143.636734,120.121460 143.943832,120.025978 
z"/>
<path fill="#10743D" opacity="1.000000" stroke="none" 
	d="
M168.463226,161.989746 
	C167.770599,155.153442 167.502838,148.325150 167.336212,141.494370 
	C167.169052,134.640610 167.102768,127.784386 167.009094,120.548065 
	C174.045395,120.140961 181.064911,120.115036 188.552399,120.151245 
	C189.680023,133.839249 190.339645,147.465149 190.998260,161.539734 
	C183.642319,161.991165 176.287369,161.993896 168.463226,161.989746 
z"/>
<path fill="#107C41" opacity="1.000000" stroke="none" 
	d="
M143.952515,119.554604 
	C143.636734,120.121460 143.391144,120.301056 143.107452,120.774109 
	C139.317627,120.980721 135.627411,120.977982 131.471893,120.503540 
	C131.005310,106.700806 131.003998,93.369781 131.002686,80.038750 
	C131.002686,80.038750 131.003662,79.982376 131.005386,79.953331 
	C135.010300,79.952637 139.013504,79.980988 143.470016,80.042465 
	C143.935959,93.078140 143.948578,106.080681 143.952515,119.554604 
z"/>
<path fill="#0E3A22" opacity="1.000000" stroke="none" 
	d="
M119.372559,169.989059 
	C119.302193,168.853500 119.622589,167.724655 120.130829,165.942291 
	C121.547867,162.179001 123.649445,159.120697 123.836624,155.949417 
	C124.326004,147.657867 123.978477,139.316910 123.964592,130.995651 
	C123.982025,127.969925 123.999458,124.944206 124.269653,121.361900 
	C125.349579,120.868111 126.176743,120.930901 127.011154,120.991806 
	C127.018387,120.989937 127.040237,120.976776 127.040237,120.976776 
	C127.019409,136.333832 126.998581,151.690872 126.967392,167.514481 
	C124.559135,168.652603 122.161224,169.324173 119.372559,169.989059 
z"/>
<path fill="#10713D" opacity="1.000000" stroke="none" 
	d="
M130.594147,80.027176 
	C131.003998,93.369781 131.005310,106.700806 131.012451,120.495956 
	C129.956528,120.969673 128.894775,120.979279 127.436630,120.982834 
	C127.040237,120.976776 127.018387,120.989937 127.012527,120.523849 
	C126.977898,106.740860 126.949127,93.423943 126.920364,80.107033 
	C128.008789,80.076561 129.097198,80.046082 130.594147,80.027176 
z"/>
<path fill="#F6FAF8" opacity="1.000000" stroke="none" 
	d="
M83.460442,137.779785 
	C81.314186,134.231171 79.468475,130.901688 77.169930,126.755333 
	C74.392876,132.001495 71.926964,136.068359 70.045128,140.389587 
	C68.334732,144.317154 65.769829,145.752670 61.646763,145.056320 
	C60.088184,144.793076 58.447895,145.013580 56.067669,145.013580 
	C59.837067,138.909393 63.212566,133.443100 66.699745,127.625671 
	C70.539299,123.427620 71.499924,119.682693 67.930618,114.822830 
	C64.399765,110.015335 61.792786,104.529305 58.528091,99.123108 
	C58.070507,98.168640 57.865383,97.431961 57.775162,96.328873 
	C66.708527,94.164421 71.728897,98.059837 74.147934,106.415779 
	C74.908775,109.043869 76.618759,111.397186 78.285027,114.635612 
	C81.387421,109.083282 84.001411,104.060204 86.989349,99.270401 
	C87.871254,97.856667 89.809608,97.101944 92.049286,96.040802 
	C94.754333,96.036385 96.673927,96.036385 99.397774,96.036385 
	C95.860054,101.929863 93.335960,107.631569 89.476311,112.206535 
	C83.968987,118.734528 85.233810,124.162529 90.240677,129.823395 
	C90.349403,129.946335 90.485603,130.044968 90.608986,130.154938 
	C93.362755,134.974304 96.116516,139.793686 98.952530,144.756989 
	C88.210754,145.781555 86.995010,145.222183 83.460442,137.779785 
z"/>
<path fill="#137841" opacity="1.000000" stroke="none" 
	d="
M90.925339,129.975510 
	C90.485603,130.044968 90.349403,129.946335 90.240677,129.823395 
	C85.233810,124.162529 83.968987,118.734528 89.476311,112.206535 
	C93.335960,107.631569 95.860054,101.929863 99.397774,96.036385 
	C96.673927,96.036385 94.754333,96.036385 92.418777,95.949402 
	C93.101257,93.975540 93.973175,91.902481 95.341545,90.237434 
	C99.114159,85.646881 103.094513,81.227058 106.997978,76.375809 
	C110.824379,76.008339 114.704521,75.598930 118.445976,76.143097 
	C120.963593,76.509277 123.285133,78.223618 125.476318,79.671844 
	C124.645943,80.566284 123.502808,81.126816 123.506050,81.680641 
	C123.530029,85.785057 123.781998,89.888145 123.962334,93.991646 
	C123.399300,94.280373 122.431526,94.470421 122.333496,94.872513 
	C120.669342,101.698479 114.391693,104.678741 110.193069,109.335495 
	C105.038391,115.052597 99.265900,120.209175 93.864609,125.710297 
	C92.754608,126.840813 92.104034,128.422409 90.925339,129.975510 
z"/>
<path fill="#0E6C37" opacity="1.000000" stroke="none" 
	d="
M123.618813,131.054626 
	C123.978477,139.316910 124.326004,147.657867 123.836624,155.949417 
	C123.649445,159.120697 121.547867,162.179001 120.155838,165.588074 
	C110.969040,166.235672 101.945061,166.583984 92.453598,166.876846 
	C96.069283,162.029083 99.903221,156.993011 104.294891,152.502396 
	C110.652306,146.001755 118.559860,140.899796 122.128311,131.972946 
	C122.279617,131.594452 122.881210,131.395950 123.618813,131.054626 
z"/>
<path fill="#0A5029" opacity="1.000000" stroke="none" 
	d="
M123.976608,94.460968 
	C123.781998,89.888145 123.530029,85.785057 123.506050,81.680641 
	C123.502808,81.126816 124.645943,80.566284 125.636406,79.993317 
	C126.014572,79.977768 126.467781,80.044769 126.694077,80.075897 
	C126.949127,93.423943 126.977898,106.740860 127.005295,120.525726 
	C126.176743,120.930901 125.349579,120.868111 124.277328,120.908722 
	C124.018463,112.318184 124.004677,103.624245 123.976608,94.460968 
z"/>
</svg>