<svg version="1.1" id="Layer_1" xmlns="http://www.w3.org/2000/svg" xmlns:xlink="http://www.w3.org/1999/xlink" x="0px" y="0px"
	 width="100%" viewBox="0 0 320 240" enable-background="new 0 0 320 240" xml:space="preserve">
<path fill="#FEFDFD" opacity="1.000000" stroke="none" 
	d="
M226.000000,241.000000 
	C150.666687,241.000000 75.833382,241.000000 1.000050,241.000000 
	C1.000033,161.000046 1.000033,81.000092 1.000017,1.000104 
	C107.666588,1.000069 214.333176,1.000069 320.999817,1.000035 
	C320.999878,80.999901 320.999878,160.999802 320.999939,240.999847 
	C289.500000,241.000000 258.000000,241.000000 226.000000,241.000000 
M225.556412,99.675598 
	C224.304901,99.827560 223.053406,99.979530 221.501953,100.167915 
	C223.920624,127.145958 226.280975,153.687134 228.694992,180.223434 
	C229.191208,185.678207 228.032242,192.751724 230.997910,196.113678 
	C234.161194,199.699661 241.495926,199.319061 246.683136,201.460739 
	C261.743225,207.678741 276.604065,207.702164 291.635315,201.458527 
	C295.297546,199.937332 299.243225,198.859451 303.162872,198.260849 
	C307.534973,197.593170 308.617310,195.279587 308.934479,191.226593 
	C310.350861,173.127899 312.094177,155.054932 313.691528,136.970230 
	C314.771149,124.747345 315.804260,112.520355 316.911713,99.674515 
	C286.440704,99.674515 256.493378,99.674515 225.556412,99.675598 
M135.390289,161.048431 
	C142.924133,163.133347 150.434769,165.309402 158.008606,167.237167 
	C159.833435,167.701645 161.979141,167.768616 163.787186,167.294098 
	C174.564468,164.465530 185.249313,161.279694 196.048935,158.544464 
	C199.233185,157.738007 200.226135,156.220383 200.482376,153.148880 
	C201.879471,136.402435 203.471603,119.672318 204.974045,102.934563 
	C206.235901,88.877266 207.466827,74.817200 208.741211,60.422195 
	C176.883835,60.422195 145.344193,60.422195 113.611595,60.422195 
	C113.572807,61.294643 113.471352,61.930195 113.527458,62.551517 
	C115.966736,89.562767 118.463516,116.568909 120.853210,143.584518 
	C122.054924,157.169876 121.968323,157.177536 135.390289,161.048431 
M74.255051,201.730408 
	C78.741348,200.477280 83.188652,199.050186 87.727768,198.032639 
	C90.718040,197.362305 92.055351,196.157822 92.337776,192.838043 
	C94.934990,162.309525 97.745956,131.799194 100.465378,101.280960 
	C100.502808,100.860909 100.162399,100.407173 100.004166,99.984711 
	C68.478188,99.984711 37.066364,99.984711 5.404916,99.984711 
	C5.404916,101.242393 5.332235,102.211830 5.415822,103.167595 
	C6.663600,117.435310 7.926023,131.701752 9.197225,145.967392 
	C10.527288,160.893600 11.971559,175.810730 13.144009,190.749237 
	C13.479448,195.023148 14.544514,197.748138 19.433197,198.436279 
	C23.842228,199.056915 28.274612,200.318497 32.396774,202.022827 
	C46.163273,207.714661 59.790508,207.677856 74.255051,201.730408 
M68.306931,90.781731 
	C70.190178,90.964684 72.073433,91.147629 74.127640,91.347183 
	C74.127640,84.993378 74.127640,79.235611 74.127640,73.686005 
	C68.517143,71.040535 66.529320,75.556740 63.836884,79.047409 
	C61.571861,74.835579 59.411121,71.178711 54.064445,73.732956 
	C54.064445,79.444527 54.064445,85.177086 54.064445,91.057899 
	C56.087940,91.057899 57.850109,91.057899 59.669952,91.057899 
	C59.849895,88.647057 60.010975,86.488983 60.211975,83.796043 
	C61.816200,85.741241 62.913521,87.071800 64.054672,88.455498 
	C65.392693,86.844711 66.470070,85.547699 68.092293,83.594780 
	C68.092293,86.368500 68.092293,88.186523 68.306931,90.781731 
M16.589119,91.320709 
	C22.060263,92.440437 19.072977,87.195648 21.106005,85.316978 
	C22.352018,85.391663 23.776772,85.477074 25.335438,85.570503 
	C25.584921,87.609200 25.797806,89.348831 26.005159,91.043251 
	C28.039440,91.043251 29.802010,91.043251 31.678076,91.043251 
	C31.678076,85.034935 31.678076,79.307655 31.678076,73.341522 
	C29.686586,73.341522 27.927307,73.341522 25.994108,73.341522 
	C25.801184,75.167725 25.614283,76.936897 25.413368,78.838715 
	C23.699137,78.838715 22.124384,78.838715 20.345636,78.838715 
	C20.202959,76.854225 20.078241,75.119514 19.953266,73.381241 
	C17.809122,73.381241 16.081245,73.381241 13.997650,73.381241 
	C13.997650,78.930244 13.939665,84.207031 14.074746,89.478867 
	C14.090724,90.102417 15.164275,90.698875 16.589119,91.320709 
M272.981812,73.093513 
	C268.704651,73.093513 264.427460,73.093513 260.009674,73.093513 
	C258.064453,79.629654 264.843933,81.301926 266.546692,85.922295 
	C264.228760,86.122559 262.055359,86.310341 259.595123,86.522896 
	C259.689301,88.289810 259.764252,89.695953 259.838684,91.092682 
	C265.559296,91.092682 270.922577,91.092682 276.312195,91.092682 
	C277.889343,84.794571 271.081390,83.329590 269.801208,78.588409 
	C271.932678,78.380707 273.989075,78.180321 277.685577,77.820107 
	C275.950256,75.683800 274.898529,74.389015 272.981812,73.093513 
M283.569580,81.925636 
	C284.600220,83.136932 285.630829,84.348228 287.027710,85.989960 
	C284.276093,86.135056 282.180328,86.245560 279.876190,86.367065 
	C279.876190,88.110504 279.876190,89.637321 279.876190,91.030655 
	C285.637085,91.030655 291.020691,91.030655 296.404327,91.030655 
	C296.808167,90.614891 297.212036,90.199127 297.615875,89.783363 
	C295.028839,86.127174 292.441803,82.470993 289.626099,78.491608 
	C291.925140,78.341499 293.865021,78.214851 295.927063,78.080215 
	C295.927063,76.330544 295.927063,74.785378 295.927063,73.404358 
	C290.309570,73.404358 285.050751,73.404358 278.091858,73.404358 
	C280.171692,76.732079 281.628418,79.062859 283.569580,81.925636 
M164.181396,41.221535 
	C165.675079,42.885559 167.168762,44.549587 169.048904,46.644138 
	C166.007507,46.855316 163.788345,47.009403 161.272537,47.184082 
	C161.397644,48.945755 161.496277,50.334690 161.592712,51.692589 
	C167.353989,51.692589 172.726974,51.692589 178.003403,51.692589 
	C179.735245,45.370914 172.785431,43.762417 171.479935,39.077065 
	C173.761566,38.945404 175.697021,38.833721 177.808685,38.711872 
	C177.808685,36.994984 177.808685,35.603741 177.808685,34.163887 
	C172.183182,34.163887 166.814804,34.163887 160.270920,34.163887 
	C161.682083,36.855858 162.684952,38.768970 164.181396,41.221535 
M256.190765,77.888763 
	C256.190765,76.332741 256.190765,74.776726 256.190765,73.475060 
	C251.121628,73.475060 246.566010,73.475060 242.112976,73.475060 
	C242.112976,79.595375 242.112976,85.327682 242.112976,91.161713 
	C246.973312,91.161713 251.541306,91.161713 256.524109,91.161713 
	C256.408844,89.320290 256.311768,87.769409 256.215759,86.235992 
	C253.286209,86.092827 250.857132,85.974113 248.344208,85.851311 
	C248.344208,83.290771 248.344208,81.075874 248.344208,78.452026 
	C250.963654,78.452026 253.270126,78.452026 256.190765,77.888763 
M48.876621,73.096878 
	C44.120468,73.096878 39.364315,73.096878 34.550175,73.096878 
	C34.550175,75.432945 34.550175,77.171471 34.550175,78.870735 
	C36.389397,79.223328 37.945045,79.521545 39.787636,79.874779 
	C39.787636,83.742310 39.787636,87.330132 39.787636,90.992111 
	C42.030621,90.992111 43.914219,90.992111 46.058220,90.992111 
	C46.058220,87.042175 46.058220,83.425858 46.058220,79.674614 
	C47.869888,79.403442 49.444267,79.167793 51.854774,78.806984 
	C51.056805,76.667328 50.395161,74.893196 48.876621,73.096878 
M91.727989,85.791107 
	C89.002220,85.444298 86.276443,85.097496 83.138298,84.698219 
	C83.138298,80.796906 83.138298,77.059044 83.138298,73.023438 
	C80.950623,73.146713 79.222626,73.244095 77.466614,73.343048 
	C77.466614,79.508202 77.466614,85.221786 77.466614,91.135445 
	C82.359344,91.135445 86.962234,91.135445 91.989830,91.135445 
	C91.989830,89.551895 91.989830,88.098785 91.727989,85.791107 
M158.391113,42.516693 
	C158.391113,39.739845 158.391113,36.963001 158.391113,34.034409 
	C156.150253,34.034409 154.389984,34.034409 152.133972,34.034409 
	C152.133972,37.970665 152.133972,41.698849 152.133972,45.704891 
	C149.108322,45.845108 146.557907,45.963299 143.778488,46.092106 
	C143.889481,48.272888 143.977539,50.003006 144.063049,51.682922 
	C149.011490,51.682922 153.544022,51.682922 158.391068,51.682922 
	C158.391068,48.735012 158.391068,46.102459 158.391113,42.516693 
z"/>
<path fill="#1461AB" opacity="1.000000" stroke="none" 
	d="
M226.051239,99.675056 
	C256.493378,99.674515 286.440704,99.674515 316.911713,99.674515 
	C315.804260,112.520355 314.771149,124.747345 313.691528,136.970230 
	C312.094177,155.054932 310.350861,173.127899 308.934479,191.226593 
	C308.617310,195.279587 307.534973,197.593170 303.162872,198.260849 
	C299.243225,198.859451 295.297546,199.937332 291.635315,201.458527 
	C276.604065,207.702164 261.743225,207.678741 246.683136,201.460739 
	C241.495926,199.319061 234.161194,199.699661 230.997910,196.113678 
	C228.032242,192.751724 229.191208,185.678207 228.694992,180.223434 
	C226.280975,153.687134 223.920624,127.145958 221.501953,100.167915 
	C223.053406,99.979530 224.304901,99.827560 226.051239,99.675056 
M268.020752,118.641350 
	C258.575897,118.641350 249.131058,118.641350 239.404205,118.641350 
	C239.778885,122.922195 240.091873,126.497993 240.478394,130.913925 
	C250.178772,130.913925 259.617676,130.913925 269.056213,131.826996 
	C268.748047,135.404739 268.439850,138.982468 267.198212,142.692001 
	C263.420929,142.655579 259.643646,142.619156 255.641205,142.344467 
	C255.248169,142.371841 255.078888,142.586792 255.071335,143.852524 
	C255.433594,147.403793 255.795853,150.955063 256.206024,154.976105 
	C260.816223,154.976105 264.924957,154.976105 269.038696,155.915253 
	C269.057861,161.670776 269.077057,167.426285 268.266602,173.252029 
	C261.595978,171.912476 254.063644,171.555145 254.992691,161.562698 
	C255.014526,161.327942 254.630539,161.055481 254.551773,160.952362 
	C250.722168,160.952362 247.031815,160.952362 243.151901,160.952362 
	C243.572235,166.199921 244.044113,170.978195 244.304230,175.767960 
	C244.453415,178.514511 245.652878,179.744034 248.372360,180.415787 
	C255.292618,182.125198 262.119537,184.212463 269.004578,187.056091 
	C269.004578,190.927246 269.004578,194.798401 269.004578,199.384247 
	C279.672363,196.381378 289.220367,193.750381 298.712860,190.932434 
	C299.642548,190.656448 300.796875,189.286850 300.891571,188.330276 
	C302.031982,176.813309 302.996185,165.278854 303.998199,153.748260 
	C305.057678,141.556473 306.096649,129.362900 307.171234,117.172455 
	C307.424622,114.298386 307.785095,111.433769 308.163422,107.946106 
	C298.179993,107.946106 289.075745,107.946098 279.971497,107.946098 
	C269.351471,107.946091 269.351471,107.946098 268.020752,118.641350 
z"/>
<path fill="#DE9424" opacity="1.000000" stroke="none" 
	d="
M134.990265,160.966583 
	C121.968323,157.177536 122.054924,157.169876 120.853210,143.584518 
	C118.463516,116.568909 115.966736,89.562767 113.527458,62.551517 
	C113.471352,61.930195 113.572807,61.294643 113.611595,60.422195 
	C145.344193,60.422195 176.883835,60.422195 208.741211,60.422195 
	C207.466827,74.817200 206.235901,88.877266 204.974045,102.934563 
	C203.471603,119.672318 201.879471,136.402435 200.482376,153.148880 
	C200.226135,156.220383 199.233185,157.738007 196.048935,158.544464 
	C185.249313,161.279694 174.564468,164.465530 163.787186,167.294098 
	C161.979141,167.768616 159.833435,167.701645 158.008606,167.237167 
	C150.434769,165.309402 142.924133,163.133347 134.990265,160.966583 
M160.997284,117.068710 
	C161.040817,122.878548 161.084366,128.688385 160.258835,134.642624 
	C147.792938,132.028687 147.796844,132.028244 146.782669,123.199966 
	C146.750031,122.915741 146.457443,122.661369 146.240967,122.322533 
	C142.555283,122.322533 138.846497,122.322533 134.863327,122.322533 
	C135.290756,127.481956 135.931946,132.258911 135.992538,137.043213 
	C136.030029,140.003906 137.328278,141.035522 139.896561,141.702499 
	C146.947327,143.533554 153.947586,145.559158 160.986343,148.360123 
	C160.986343,151.774948 160.986343,155.189758 160.986343,159.505844 
	C168.807724,157.479614 175.623428,155.652084 182.472122,153.958038 
	C188.651474,152.429550 193.558304,151.312851 193.494995,142.316284 
	C193.396774,128.357056 195.692398,114.379242 197.006790,100.412460 
	C197.887833,91.050255 198.688004,81.676758 199.813705,72.343208 
	C200.221863,68.959007 199.265701,67.905945 195.920609,67.952599 
	C185.615173,68.096313 175.302872,68.159363 165.000946,67.920731 
	C161.404251,67.837418 160.709564,69.451393 160.058060,72.655487 
	C153.108093,72.655487 146.158112,72.655487 138.721878,72.655487 
	C137.404861,87.316612 136.138245,101.416626 134.814407,116.153687 
	C144.094284,116.153687 152.543579,116.153687 160.997284,117.068710 
z"/>
<path fill="#DD3E22" opacity="1.000000" stroke="none" 
	d="
M73.860023,201.822754 
	C59.790508,207.677856 46.163273,207.714661 32.396774,202.022827 
	C28.274612,200.318497 23.842228,199.056915 19.433197,198.436279 
	C14.544514,197.748138 13.479448,195.023148 13.144009,190.749237 
	C11.971559,175.810730 10.527288,160.893600 9.197225,145.967392 
	C7.926023,131.701752 6.663600,117.435310 5.415822,103.167595 
	C5.332235,102.211830 5.404916,101.242393 5.404916,99.984711 
	C37.066364,99.984711 68.478188,99.984711 100.004166,99.984711 
	C100.162399,100.407173 100.502808,100.860909 100.465378,101.280960 
	C97.745956,131.799194 94.934990,162.309525 92.337776,192.838043 
	C92.055351,196.157822 90.718040,197.362305 87.727768,198.032639 
	C83.188652,199.050186 78.741348,200.477280 73.860023,201.822754 
M52.549770,118.227531 
	C52.360397,118.509468 52.171021,118.791405 51.070194,119.303528 
	C41.817917,119.303528 32.565639,119.303528 22.928947,119.303528 
	C24.070328,131.807266 25.138462,143.508575 26.271048,155.915955 
	C35.435226,155.915955 44.223808,155.915955 53.006008,156.863693 
	C53.004719,162.568436 53.003429,168.273178 52.213448,174.141464 
	C51.557304,174.037460 50.895554,173.960419 50.245884,173.825287 
	C43.627903,172.448593 36.523197,171.548004 38.964085,161.686081 
	C34.590984,161.686081 30.882841,161.686081 26.784174,161.686081 
	C27.218353,166.873337 27.770231,171.658371 27.962416,176.457809 
	C28.073332,179.227737 29.052649,180.499008 31.846392,181.187622 
	C38.946815,182.937714 45.948650,185.087784 52.999928,187.989578 
	C52.999928,191.541107 52.999928,195.092636 52.999928,199.176773 
	C60.571857,197.141235 67.056648,195.190536 73.642921,193.683380 
	C80.801483,192.045288 87.460129,190.301086 85.096588,180.517822 
	C85.060486,180.368393 85.150803,180.191559 85.166466,180.026047 
	C86.442703,166.529373 87.739449,153.034576 88.984451,139.535019 
	C89.820045,130.474655 90.274338,121.364586 91.529099,112.364563 
	C92.029099,108.778221 91.306961,107.915565 87.967926,107.961914 
	C79.639275,108.077545 71.307930,107.999268 62.977669,107.999115 
	C53.012844,107.998940 53.012844,107.999084 52.549770,118.227531 
z"/>
<path fill="#131515" opacity="1.000000" stroke="none" 
	d="
M68.199615,90.393143 
	C68.092293,88.186523 68.092293,86.368500 68.092293,83.594780 
	C66.470070,85.547699 65.392693,86.844711 64.054672,88.455498 
	C62.913521,87.071800 61.816200,85.741241 60.211975,83.796043 
	C60.010975,86.488983 59.849895,88.647057 59.669952,91.057899 
	C57.850109,91.057899 56.087940,91.057899 54.064445,91.057899 
	C54.064445,85.177086 54.064445,79.444527 54.064445,73.732956 
	C59.411121,71.178711 61.571861,74.835579 63.836884,79.047409 
	C66.529320,75.556740 68.517143,71.040535 74.127640,73.686005 
	C74.127640,79.235611 74.127640,84.993378 74.127640,91.347183 
	C72.073433,91.147629 70.190178,90.964684 68.199615,90.393143 
z"/>
<path fill="#141516" opacity="1.000000" stroke="none" 
	d="
M16.168354,91.314301 
	C15.164275,90.698875 14.090724,90.102417 14.074746,89.478867 
	C13.939665,84.207031 13.997650,78.930244 13.997650,73.381241 
	C16.081245,73.381241 17.809122,73.381241 19.953266,73.381241 
	C20.078241,75.119514 20.202959,76.854225 20.345636,78.838715 
	C22.124384,78.838715 23.699137,78.838715 25.413368,78.838715 
	C25.614283,76.936897 25.801184,75.167725 25.994108,73.341522 
	C27.927307,73.341522 29.686586,73.341522 31.678076,73.341522 
	C31.678076,79.307655 31.678076,85.034935 31.678076,91.043251 
	C29.802010,91.043251 28.039440,91.043251 26.005159,91.043251 
	C25.797806,89.348831 25.584921,87.609200 25.335438,85.570503 
	C23.776772,85.477074 22.352018,85.391663 21.106005,85.316978 
	C19.072977,87.195648 22.060263,92.440437 16.168354,91.314301 
z"/>
<path fill="#1E1E1E" opacity="1.000000" stroke="none" 
	d="
M273.414307,73.093872 
	C274.898529,74.389015 275.950256,75.683800 277.685577,77.820107 
	C273.989075,78.180321 271.932678,78.380707 269.801208,78.588409 
	C271.081390,83.329590 277.889343,84.794571 276.312195,91.092682 
	C270.922577,91.092682 265.559296,91.092682 259.838684,91.092682 
	C259.764252,89.695953 259.689301,88.289810 259.595123,86.522896 
	C262.055359,86.310341 264.228760,86.122559 266.546692,85.922295 
	C264.843933,81.301926 258.064453,79.629654 260.009674,73.093513 
	C264.427460,73.093513 268.704651,73.093513 273.414307,73.093872 
z"/>
<path fill="#1E1E1E" opacity="1.000000" stroke="none" 
	d="
M283.327393,81.659637 
	C281.628418,79.062859 280.171692,76.732079 278.091858,73.404358 
	C285.050751,73.404358 290.309570,73.404358 295.927063,73.404358 
	C295.927063,74.785378 295.927063,76.330544 295.927063,78.080215 
	C293.865021,78.214851 291.925140,78.341499 289.626099,78.491608 
	C292.441803,82.470993 295.028839,86.127174 297.615875,89.783363 
	C297.212036,90.199127 296.808167,90.614891 296.404327,91.030655 
	C291.020691,91.030655 285.637085,91.030655 279.876190,91.030655 
	C279.876190,89.637321 279.876190,88.110504 279.876190,86.367065 
	C282.180328,86.245560 284.276093,86.135056 287.027710,85.989960 
	C285.630829,84.348228 284.600220,83.136932 283.327393,81.659637 
z"/>
<path fill="#1F1F1F" opacity="1.000000" stroke="none" 
	d="
M163.934616,40.951809 
	C162.684952,38.768970 161.682083,36.855858 160.270920,34.163887 
	C166.814804,34.163887 172.183182,34.163887 177.808685,34.163887 
	C177.808685,35.603741 177.808685,36.994984 177.808685,38.711872 
	C175.697021,38.833721 173.761566,38.945404 171.479935,39.077065 
	C172.785431,43.762417 179.735245,45.370914 178.003403,51.692589 
	C172.726974,51.692589 167.353989,51.692589 161.592712,51.692589 
	C161.496277,50.334690 161.397644,48.945755 161.272537,47.184082 
	C163.788345,47.009403 166.007507,46.855316 169.048904,46.644138 
	C167.168762,44.549587 165.675079,42.885559 163.934616,40.951809 
z"/>
<path fill="#1F1F1F" opacity="1.000000" stroke="none" 
	d="
M255.883698,78.170395 
	C253.270126,78.452026 250.963654,78.452026 248.344208,78.452026 
	C248.344208,81.075874 248.344208,83.290771 248.344208,85.851311 
	C250.857132,85.974113 253.286209,86.092827 256.215759,86.235992 
	C256.311768,87.769409 256.408844,89.320290 256.524109,91.161713 
	C251.541306,91.161713 246.973312,91.161713 242.112976,91.161713 
	C242.112976,85.327682 242.112976,79.595375 242.112976,73.475060 
	C246.566010,73.475060 251.121628,73.475060 256.190765,73.475060 
	C256.190765,74.776726 256.190765,76.332741 255.883698,78.170395 
z"/>
<path fill="#161718" opacity="1.000000" stroke="none" 
	d="
M49.305069,73.107971 
	C50.395161,74.893196 51.056805,76.667328 51.854774,78.806984 
	C49.444267,79.167793 47.869888,79.403442 46.058220,79.674614 
	C46.058220,83.425858 46.058220,87.042175 46.058220,90.992111 
	C43.914219,90.992111 42.030621,90.992111 39.787636,90.992111 
	C39.787636,87.330132 39.787636,83.742310 39.787636,79.874779 
	C37.945045,79.521545 36.389397,79.223328 34.550175,78.870735 
	C34.550175,77.171471 34.550175,75.432945 34.550175,73.096878 
	C39.364315,73.096878 44.120468,73.096878 49.305069,73.107971 
z"/>
<path fill="#1A1B1C" opacity="1.000000" stroke="none" 
	d="
M91.858910,86.218399 
	C91.989830,88.098785 91.989830,89.551895 91.989830,91.135445 
	C86.962234,91.135445 82.359344,91.135445 77.466614,91.135445 
	C77.466614,85.221786 77.466614,79.508202 77.466614,73.343048 
	C79.222626,73.244095 80.950623,73.146713 83.138298,73.023438 
	C83.138298,77.059044 83.138298,80.796906 83.138298,84.698219 
	C86.276443,85.097496 89.002220,85.444298 91.858910,86.218399 
z"/>
<path fill="#131415" opacity="1.000000" stroke="none" 
	d="
M158.391083,42.993301 
	C158.391068,46.102459 158.391068,48.735012 158.391068,51.682922 
	C153.544022,51.682922 149.011490,51.682922 144.063049,51.682922 
	C143.977539,50.003006 143.889481,48.272888 143.778488,46.092106 
	C146.557907,45.963299 149.108322,45.845108 152.133972,45.704891 
	C152.133972,41.698849 152.133972,37.970665 152.133972,34.034409 
	C154.389984,34.034409 156.150253,34.034409 158.391113,34.034409 
	C158.391113,36.963001 158.391113,39.739845 158.391083,42.993301 
z"/>
<path fill="#F8FBFD" opacity="1.000000" stroke="none" 
	d="
M268.983795,186.148499 
	C262.119537,184.212463 255.292618,182.125198 248.372360,180.415787 
	C245.652878,179.744034 244.453415,178.514511 244.304230,175.767960 
	C244.044113,170.978195 243.572235,166.199921 243.151901,160.952362 
	C247.031815,160.952362 250.722168,160.952362 254.551773,160.952362 
	C254.630539,161.055481 255.014526,161.327942 254.992691,161.562698 
	C254.063644,171.555145 261.595978,171.912476 269.083618,173.258545 
	C273.126282,172.469238 276.452271,171.935623 279.531586,170.757263 
	C280.893463,170.236130 282.469574,168.532181 282.708191,167.150940 
	C283.375214,163.289246 283.395142,159.315796 283.699219,154.976105 
	C278.598541,154.976105 273.816101,154.976105 269.033691,154.976105 
	C264.924957,154.976105 260.816223,154.976105 256.206024,154.976105 
	C255.795853,150.955063 255.433594,147.403793 255.307587,143.360352 
	C255.543839,142.868164 255.866348,142.582733 255.866348,142.582733 
	C259.643646,142.619156 263.420929,142.655579 268.104553,142.730652 
	C274.266754,142.769318 279.522583,142.769318 284.852386,142.769318 
	C285.260468,138.399734 285.593048,134.838806 285.959625,130.913925 
	C279.962830,130.913925 274.509735,130.913925 269.056610,130.913925 
	C259.617676,130.913925 250.178772,130.913925 240.478394,130.913925 
	C240.091873,126.497993 239.778885,122.922195 239.404205,118.641350 
	C249.131058,118.641350 258.575897,118.641350 268.929138,118.650246 
	C279.417969,118.659142 288.998444,118.659142 298.064240,118.659142 
	C298.662140,119.485703 298.848358,119.624039 298.838074,119.745773 
	C297.217499,138.931076 295.632416,158.119904 293.817596,177.286942 
	C293.715820,178.361588 291.867981,179.762833 290.574463,180.151047 
	C283.421875,182.297806 276.189087,184.177368 268.983795,186.148499 
z"/>
<path fill="#2F99D4" opacity="1.000000" stroke="none" 
	d="
M268.994202,186.602295 
	C276.189087,184.177368 283.421875,182.297806 290.574463,180.151047 
	C291.867981,179.762833 293.715820,178.361588 293.817596,177.286942 
	C295.632416,158.119904 297.217499,138.931076 298.838074,119.745773 
	C298.848358,119.624039 298.662140,119.485703 298.064240,118.659142 
	C288.998444,118.659142 279.417969,118.659142 269.379272,118.540558 
	C269.351471,107.946098 269.351471,107.946091 279.971497,107.946098 
	C289.075745,107.946098 298.179993,107.946106 308.163422,107.946106 
	C307.785095,111.433769 307.424622,114.298386 307.171234,117.172455 
	C306.096649,129.362900 305.057678,141.556473 303.998199,153.748260 
	C302.996185,165.278854 302.031982,176.813309 300.891571,188.330276 
	C300.796875,189.286850 299.642548,190.656448 298.712860,190.932434 
	C289.220367,193.750381 279.672363,196.381378 269.004578,199.384247 
	C269.004578,194.798401 269.004578,190.927246 268.994202,186.602295 
z"/>
<path fill="#2D99D4" opacity="1.000000" stroke="none" 
	d="
M269.036194,155.445679 
	C273.816101,154.976105 278.598541,154.976105 283.699219,154.976105 
	C283.395142,159.315796 283.375214,163.289246 282.708191,167.150940 
	C282.469574,168.532181 280.893463,170.236130 279.531586,170.757263 
	C276.452271,171.935623 273.126282,172.469238 269.498413,173.223450 
	C269.077057,167.426285 269.057861,161.670776 269.036194,155.445679 
z"/>
<path fill="#349AD3" opacity="1.000000" stroke="none" 
	d="
M269.056396,131.370453 
	C274.509735,130.913925 279.962830,130.913925 285.959625,130.913925 
	C285.593048,134.838806 285.260468,138.399734 284.852386,142.769318 
	C279.522583,142.769318 274.266754,142.769318 268.571289,142.664764 
	C268.439850,138.982468 268.748047,135.404739 269.056396,131.370453 
z"/>
<path fill="#349AD3" opacity="1.000000" stroke="none" 
	d="
M255.753784,142.463593 
	C255.866348,142.582733 255.543839,142.868164 255.338608,142.928741 
	C255.078888,142.586792 255.248169,142.371841 255.753784,142.463593 
z"/>
<path fill="#FEFCFA" opacity="1.000000" stroke="none" 
	d="
M160.967834,147.507767 
	C153.947586,145.559158 146.947327,143.533554 139.896561,141.702499 
	C137.328278,141.035522 136.030029,140.003906 135.992538,137.043213 
	C135.931946,132.258911 135.290756,127.481956 134.863327,122.322533 
	C138.846497,122.322533 142.555283,122.322533 146.240967,122.322533 
	C146.457443,122.661369 146.750031,122.915741 146.782669,123.199966 
	C147.796844,132.028244 147.792938,132.028687 161.104492,134.555939 
	C165.152267,133.668839 168.413940,133.042053 171.524521,131.974869 
	C172.629135,131.595901 173.996292,130.241913 174.159836,129.167984 
	C174.795181,124.995918 174.994781,120.757492 175.390045,116.153687 
	C170.152725,116.153687 165.572784,116.153687 160.992859,116.153687 
	C152.543579,116.153687 144.094284,116.153687 134.814407,116.153687 
	C136.138245,101.416626 137.404861,87.316612 138.721878,72.655487 
	C146.158112,72.655487 153.108093,72.655487 160.961731,72.637802 
	C169.952118,72.620117 178.038818,72.620117 186.468353,72.620117 
	C187.238953,81.371376 187.955658,89.510635 188.691422,97.866135 
	C184.482529,97.866135 180.741028,97.866135 176.579208,97.866135 
	C176.227356,93.906433 175.895157,90.167923 175.467209,85.351814 
	C170.482346,85.351814 165.739777,85.351814 160.560425,85.247231 
	C157.640152,85.179657 155.121002,84.982811 152.688538,85.354027 
	C151.502686,85.534988 149.641418,86.660942 149.518784,87.555573 
	C148.789810,92.873276 148.480057,98.248459 148.011185,103.821472 
	C152.777527,103.821472 156.886581,103.821472 161.459427,103.894623 
	C170.807465,103.967773 179.691711,103.967773 188.713028,103.967773 
	C187.712219,115.632278 186.912338,126.534622 185.691833,137.389679 
	C185.518967,138.927185 183.549759,141.003693 181.982437,141.515640 
	C175.063370,143.775711 167.987152,145.554626 160.967834,147.507767 
z"/>
<path fill="#ECB424" opacity="1.000000" stroke="none" 
	d="
M160.977081,147.933945 
	C167.987152,145.554626 175.063370,143.775711 181.982437,141.515640 
	C183.549759,141.003693 185.518967,138.927185 185.691833,137.389679 
	C186.912338,126.534622 187.712219,115.632278 188.713028,103.967773 
	C179.691711,103.967773 170.807465,103.967773 161.459930,103.439011 
	C160.996841,97.057434 160.997025,91.204620 160.997208,85.351814 
	C165.739777,85.351814 170.482346,85.351814 175.467209,85.351814 
	C175.895157,90.167923 176.227356,93.906433 176.579208,97.866135 
	C180.741028,97.866135 184.482529,97.866135 188.691422,97.866135 
	C187.955658,89.510635 187.238953,81.371376 186.468353,72.620117 
	C178.038818,72.620117 169.952118,72.620117 161.406128,72.500336 
	C160.709564,69.451393 161.404251,67.837418 165.000946,67.920731 
	C175.302872,68.159363 185.615173,68.096313 195.920609,67.952599 
	C199.265701,67.905945 200.221863,68.959007 199.813705,72.343208 
	C198.688004,81.676758 197.887833,91.050255 197.006790,100.412460 
	C195.692398,114.379242 193.396774,128.357056 193.494995,142.316284 
	C193.558304,151.312851 188.651474,152.429550 182.472122,153.958038 
	C175.623428,155.652084 168.807724,157.479614 160.986343,159.505844 
	C160.986343,155.189758 160.986343,151.774948 160.977081,147.933945 
z"/>
<path fill="#ECB523" opacity="1.000000" stroke="none" 
	d="
M160.995071,116.611198 
	C165.572784,116.153687 170.152725,116.153687 175.390045,116.153687 
	C174.994781,120.757492 174.795181,124.995918 174.159836,129.167984 
	C173.996292,130.241913 172.629135,131.595901 171.524521,131.974869 
	C168.413940,133.042053 165.152267,133.668839 161.539032,134.483734 
	C161.084366,128.688385 161.040817,122.878548 160.995071,116.611198 
z"/>
<path fill="#FDF8F7" opacity="1.000000" stroke="none" 
	d="
M52.989948,187.077744 
	C45.948650,185.087784 38.946815,182.937714 31.846392,181.187622 
	C29.052649,180.499008 28.073332,179.227737 27.962416,176.457809 
	C27.770231,171.658371 27.218353,166.873337 26.784174,161.686081 
	C30.882841,161.686081 34.590984,161.686081 38.964085,161.686081 
	C36.523197,171.548004 43.627903,172.448593 50.245884,173.825287 
	C50.895554,173.960419 51.557304,174.037460 53.003117,174.107239 
	C56.982494,173.258224 60.227409,172.604904 63.332718,171.543228 
	C64.458145,171.158493 65.913040,169.902039 66.077103,168.863235 
	C66.734581,164.700150 66.944481,160.466400 67.350487,155.915955 
	C62.148666,155.915955 57.580528,155.915955 53.012390,155.915955 
	C44.223808,155.915955 35.435226,155.915955 26.271048,155.915955 
	C25.138462,143.508575 24.070328,131.807266 22.928947,119.303528 
	C32.565639,119.303528 41.817917,119.303528 51.787392,119.252327 
	C52.671875,119.136223 52.839169,119.071312 53.255871,119.083893 
	C53.675064,119.122841 53.844856,119.084312 54.472649,119.150505 
	C64.151680,119.255234 73.372711,119.255234 82.890732,119.255234 
	C82.399330,123.756393 82.008003,127.340828 81.521927,131.793213 
	C71.854294,131.793213 62.413269,131.793213 52.529293,131.642654 
	C47.074879,131.588943 42.063412,131.685776 36.813381,131.696869 
	C36.473522,132.060593 36.372231,132.510101 36.239571,133.371429 
	C36.610916,136.865936 37.013634,139.948593 37.414604,143.170486 
	C37.412849,143.309708 37.665649,143.423447 37.665649,143.423447 
	C37.665649,143.423447 37.822887,143.194962 38.273674,143.353943 
	C43.471760,143.414154 48.219059,143.315353 53.415844,143.352631 
	C62.624451,143.488693 71.383575,143.488693 80.558327,143.488693 
	C79.550362,155.486298 78.721695,166.589813 77.543442,177.656097 
	C77.410355,178.906067 75.493271,180.535690 74.083763,180.983856 
	C67.111511,183.200775 60.031784,185.079666 52.989948,187.077744 
z"/>
<path fill="#EB5529" opacity="1.000000" stroke="none" 
	d="
M52.994938,187.533661 
	C60.031784,185.079666 67.111511,183.200775 74.083763,180.983856 
	C75.493271,180.535690 77.410355,178.906067 77.543442,177.656097 
	C78.721695,166.589813 79.550362,155.486298 80.558327,143.488693 
	C71.383575,143.488693 62.624451,143.488693 53.428715,142.950134 
	C52.985485,138.872116 52.978863,135.332657 52.972240,131.793213 
	C62.413269,131.793213 71.854294,131.793213 81.521927,131.793213 
	C82.008003,127.340828 82.399330,123.756393 82.890732,119.255234 
	C73.372711,119.255234 64.151680,119.255234 54.367607,118.921661 
	C53.539116,118.391266 53.273663,118.194435 53.004276,117.997780 
	C53.000347,117.997948 53.003906,117.981697 53.003906,117.981697 
	C53.012844,107.999084 53.012844,107.998940 62.977669,107.999115 
	C71.307930,107.999268 79.639275,108.077545 87.967926,107.961914 
	C91.306961,107.915565 92.029099,108.778221 91.529099,112.364563 
	C90.274338,121.364586 89.820045,130.474655 88.984451,139.535019 
	C87.739449,153.034576 86.442703,166.529373 85.166466,180.026047 
	C85.150803,180.191559 85.060486,180.368393 85.096588,180.517822 
	C87.460129,190.301086 80.801483,192.045288 73.642921,193.683380 
	C67.056648,195.190536 60.571857,197.141235 52.999928,199.176773 
	C52.999928,195.092636 52.999928,191.541107 52.994938,187.533661 
z"/>
<path fill="#EB5224" opacity="1.000000" stroke="none" 
	d="
M53.009201,156.389832 
	C57.580528,155.915955 62.148666,155.915955 67.350487,155.915955 
	C66.944481,160.466400 66.734581,164.700150 66.077103,168.863235 
	C65.913040,169.902039 64.458145,171.158493 63.332718,171.543228 
	C60.227409,172.604904 56.982494,173.258224 53.397461,174.025482 
	C53.003429,168.273178 53.004719,162.568436 53.009201,156.389832 
z"/>
<path fill="#DB2D0B" opacity="1.000000" stroke="none" 
	d="
M53.006466,119.006401 
	C52.839169,119.071312 52.671875,119.136223 52.243114,119.137238 
	C52.171021,118.791405 52.360397,118.509468 52.776840,118.104614 
	C53.003906,117.981697 53.000347,117.997948 53.001511,118.249977 
	C53.003937,118.670135 53.005203,118.838272 53.006466,119.006401 
z"/>
<path fill="#DE9424" opacity="1.000000" stroke="none" 
	d="
M160.560425,85.247231 
	C160.997025,91.204620 160.996841,97.057434 160.996155,103.365860 
	C156.886581,103.821472 152.777527,103.821472 148.011185,103.821472 
	C148.480057,98.248459 148.789810,92.873276 149.518784,87.555573 
	C149.641418,86.660942 151.502686,85.534988 152.688538,85.354027 
	C155.121002,84.982811 157.640152,85.179657 160.560425,85.247231 
z"/>
<path fill="#DC3A1D" opacity="1.000000" stroke="none" 
	d="
M52.529293,131.642654 
	C52.978863,135.332657 52.985485,138.872116 52.979233,142.814056 
	C48.219059,143.315353 43.471760,143.414154 38.220943,143.297150 
	C37.717430,143.081375 37.416355,143.031265 37.416355,143.031265 
	C37.013634,139.948593 36.610916,136.865936 36.400108,133.277390 
	C36.745323,132.441879 36.898632,132.112259 37.051941,131.782623 
	C42.063412,131.685776 47.074879,131.588943 52.529293,131.642654 
z"/>
<path fill="#EB5529" opacity="1.000000" stroke="none" 
	d="
M36.813377,131.696869 
	C36.898632,132.112259 36.745323,132.441879 36.431477,132.865555 
	C36.372231,132.510101 36.473522,132.060593 36.813377,131.696869 
z"/>
<path fill="#E9440D" opacity="1.000000" stroke="none" 
	d="
M53.255871,119.083893 
	C53.005203,118.838272 53.003937,118.670135 53.005440,118.249809 
	C53.273663,118.194435 53.539116,118.391266 53.909611,118.816933 
	C53.844856,119.084312 53.675064,119.122841 53.255871,119.083893 
z"/>
<path fill="#EB5529" opacity="1.000000" stroke="none" 
	d="
M37.414604,143.170486 
	C37.416355,143.031265 37.717430,143.081375 37.770157,143.138168 
	C37.822887,143.194962 37.665649,143.423447 37.665649,143.423447 
	C37.665649,143.423447 37.412849,143.309708 37.414604,143.170486 
z"/>
</svg>