<svg version="1.1" id="Layer_1" xmlns="http://www.w3.org/2000/svg" xmlns:xlink="http://www.w3.org/1999/xlink" x="0px" y="0px"
	 width="100%" viewBox="0 0 240 240" enable-background="new 0 0 240 240" xml:space="preserve">
<path fill="#FEFEFE" opacity="1.000000" stroke="none" 
	d="
M167.000000,241.000000 
	C111.333336,241.000000 56.166672,241.000000 1.000007,241.000000 
	C1.000005,161.000015 1.000005,81.000015 1.000003,1.000018 
	C80.999985,1.000012 160.999969,1.000012 240.999969,1.000006 
	C240.999969,80.999985 240.999969,160.999969 240.999985,240.999969 
	C216.500000,241.000000 192.000000,241.000000 167.000000,241.000000 
M97.140152,95.346764 
	C89.093643,93.961205 82.599312,97.203278 75.721504,101.421104 
	C86.734665,110.282440 142.870819,108.203621 150.020981,100.760986 
	C133.753372,101.485245 116.166786,102.390823 98.569183,102.949127 
	C95.012772,103.061951 91.414665,101.860703 87.835785,101.265282 
	C87.786255,100.583458 87.736717,99.901627 87.687180,99.219803 
	C91.109772,97.808121 94.532364,96.396439 98.479874,94.646431 
	C99.329773,94.385765 100.179665,94.125099 101.029564,93.864426 
	C100.863380,93.601418 100.697189,93.338409 100.531006,93.075394 
	C99.692085,93.731506 98.853165,94.387611 97.140152,95.346764 
M116.415886,88.254730 
	C116.857788,88.578438 117.299690,88.902153 117.741585,89.225868 
	C117.800163,89.127785 117.858734,89.029694 117.917305,88.931610 
	C117.257950,88.627274 116.598595,88.322945 115.666031,87.464874 
	C114.648376,84.973396 113.939667,82.294113 112.559166,80.023216 
	C106.826157,70.592529 107.389229,63.168770 114.952209,55.176220 
	C117.226181,52.773079 120.015617,50.861282 122.323914,48.486271 
	C126.936890,43.739979 131.770889,39.128094 135.777695,33.897007 
	C139.356979,29.224075 141.197113,23.543934 140.043350,17.468449 
	C139.610809,15.190786 138.420609,13.057006 137.575867,10.857624 
	C137.052673,10.973617 136.529495,11.089609 136.006302,11.205602 
	C138.803467,21.696522 133.983704,29.276184 126.902115,35.891975 
	C123.993820,38.608971 120.739830,40.952217 117.759842,43.597019 
	C113.172462,47.668427 108.408722,51.594162 104.231773,56.060501 
	C99.785591,60.814728 99.122932,66.942329 102.601433,72.202835 
	C106.377029,77.912613 111.473679,82.748848 116.415886,88.254730 
M166.829010,217.951813 
	C169.236908,218.927444 171.644806,219.903076 174.843918,221.199280 
	C174.843918,212.108963 174.878952,204.632904 174.834747,197.157318 
	C174.783630,188.510040 171.535461,184.769592 163.011322,184.489838 
	C159.268219,184.366974 155.413971,185.242386 151.738144,186.171036 
	C148.476349,186.995087 148.143967,189.088379 150.373611,191.518387 
	C164.848694,188.254227 168.291367,189.821625 166.607788,198.411865 
	C162.139557,199.371201 157.631790,199.845108 153.499619,201.350220 
	C148.239746,203.266098 145.878510,208.592896 147.065155,213.974854 
	C148.078537,218.570908 151.841736,221.291336 157.704102,220.846069 
	C160.556030,220.629456 163.316620,219.210190 166.829010,217.951813 
M102.018456,185.195618 
	C96.773911,185.473190 91.492393,185.464111 86.298447,186.133987 
	C83.092453,186.547440 82.335106,188.723404 84.543159,191.412384 
	C99.429993,188.580063 102.997284,190.212631 100.667618,198.882050 
	C93.286491,199.850632 84.799423,198.976578 81.609879,208.263733 
	C80.207802,212.346237 80.964256,216.510422 84.735558,218.973282 
	C90.860893,222.973450 96.797211,220.975540 100.863190,218.190048 
	C104.135910,219.318680 106.271957,220.055328 109.006920,220.998520 
	C109.006920,211.393799 109.087265,203.082657 108.974007,194.774155 
	C108.914818,190.432190 106.976410,187.118622 102.018456,185.195618 
M134.510513,217.098816 
	C137.866425,206.734406 141.222336,196.369995 144.782852,185.373657 
	C141.155899,185.373657 138.901199,185.373657 136.714417,185.373657 
	C134.457703,194.233124 132.256958,202.872925 130.056198,211.512741 
	C127.038391,204.482941 124.985039,197.648636 122.859711,190.836807 
	C120.857986,184.421127 120.824608,184.431534 113.286957,185.718155 
	C116.483170,196.079315 119.589264,206.408707 122.924393,216.663620 
	C123.394966,218.110580 124.970642,220.230377 126.056831,220.243698 
	C128.868652,220.278183 132.632614,222.212341 134.510513,217.098816 
M168.626236,146.232849 
	C169.312866,144.851303 169.999496,143.469772 170.686127,142.088242 
	C170.227142,141.804016 169.768158,141.519806 169.309174,141.235580 
	C166.826920,147.150772 161.169037,147.155945 156.358002,147.960693 
	C134.413101,151.631470 112.298958,151.865067 90.183235,149.923645 
	C84.729012,149.444855 79.382607,147.737686 73.986641,146.595215 
	C73.962021,146.020462 73.937408,145.445709 73.912796,144.870956 
	C76.158211,143.477417 78.403633,142.083878 80.649048,140.690338 
	C80.517784,140.293823 80.386520,139.897324 80.255257,139.500824 
	C77.390717,140.315735 74.298332,140.700089 71.723602,142.062637 
	C68.967018,143.521408 66.698029,145.901550 64.216225,147.879547 
	C66.994835,149.298080 69.634422,151.473251 72.574409,152.013412 
	C92.993149,155.764816 113.645157,155.969055 134.251205,154.486115 
	C145.808792,153.654358 157.457397,152.197327 168.626236,146.232849 
M68.246361,185.521332 
	C68.245277,194.518875 68.108086,203.519150 68.288300,212.513062 
	C68.420784,219.124817 67.803070,225.246475 61.193058,228.544769 
	C62.974270,233.003967 65.839455,233.793533 68.523170,230.780609 
	C71.381958,227.571121 75.213783,223.669327 75.399834,219.910355 
	C76.170670,204.336487 75.723358,188.702332 75.723358,172.887238 
	C73.313179,172.887238 71.068512,172.887238 68.246658,172.887238 
	C68.246658,176.966980 68.246658,180.749878 68.246361,185.521332 
M139.006149,46.494247 
	C135.287903,48.983112 131.234451,51.093994 127.917610,54.035492 
	C119.717995,61.307232 118.686913,70.149849 125.190872,78.893875 
	C129.043274,84.073128 132.875504,88.851151 128.248978,96.554031 
	C139.065384,90.390366 140.791107,83.371086 134.847336,74.860344 
	C133.706802,73.227242 132.570068,71.582214 131.569473,69.862450 
	C129.019501,65.479675 129.158157,61.017738 132.695084,57.447693 
	C136.528946,53.577938 140.945007,50.281601 145.142685,46.777740 
	C146.378021,45.746586 147.733978,44.859943 149.034653,43.907070 
	C148.772385,43.487934 148.510101,43.068798 148.247818,42.649662 
	C145.391510,43.822639 142.535187,44.995613 139.006149,46.494247 
M114.759209,140.591309 
	C124.802597,140.844391 134.539139,139.537155 144.371307,135.339111 
	C137.268631,131.309143 137.285217,131.642303 130.288589,131.990509 
	C121.877296,132.409119 113.427879,132.386658 105.008614,132.121658 
	C102.491646,132.042435 100.020424,130.510132 97.528244,129.643555 
	C97.003929,128.842758 96.479614,128.041977 95.955299,127.241173 
	C95.061195,128.993134 93.250443,130.904846 93.520447,132.453964 
	C93.814049,134.138504 95.790039,136.320892 97.471344,136.826263 
	C102.821510,138.434479 108.375778,139.363693 114.759209,140.591309 
M125.434029,117.196022 
	C117.310768,117.122322 109.170937,117.317078 101.073997,116.817162 
	C98.526566,116.659882 96.094261,114.638214 93.609261,113.469864 
	C93.531731,112.848969 93.454201,112.228081 93.376671,111.607185 
	C91.900269,113.357368 90.423866,115.107559 88.947464,116.857742 
	C90.666153,118.216965 92.200890,120.302155 94.139526,120.793396 
	C99.096695,122.049530 104.207153,123.026024 109.304100,123.341148 
	C121.944389,124.122673 134.368729,122.581276 146.793350,119.056183 
	C143.445404,115.530586 139.997192,114.628288 135.703903,115.827347 
	C132.698181,116.666817 129.473846,116.723564 125.434029,117.196022 
M106.992111,162.380386 
	C115.627571,162.485260 124.337425,163.348404 132.880386,162.510330 
	C144.549744,161.365555 156.136093,159.150177 167.658875,156.888550 
	C170.658661,156.299774 173.290222,153.834885 176.090897,152.231689 
	C175.855118,151.723953 175.619339,151.216217 175.383560,150.708481 
	C149.535324,160.989532 122.420929,160.542877 95.259834,159.700623 
	C95.277100,160.190781 95.294373,160.680954 95.311646,161.171127 
	C98.902176,161.531265 102.492706,161.891418 106.992111,162.380386 
M173.435837,111.888092 
	C178.430893,105.585068 178.761749,100.370384 174.450577,95.895233 
	C170.772461,92.077248 165.075699,91.010925 161.510147,93.473061 
	C172.544571,97.284073 174.170029,104.812927 165.606201,113.090149 
	C163.134171,115.479462 160.246414,117.438644 156.668289,120.299347 
	C163.893936,119.537354 168.567169,116.275963 173.435837,111.888092 
M127.568558,97.501053 
	C127.568558,97.501053 127.518387,97.484695 127.568558,97.501053 
z"/>
<path fill="#5D89A7" opacity="1.000000" stroke="none" 
	d="
M166.473785,218.143585 
	C163.316620,219.210190 160.556030,220.629456 157.704102,220.846069 
	C151.841736,221.291336 148.078537,218.570908 147.065155,213.974854 
	C145.878510,208.592896 148.239746,203.266098 153.499619,201.350220 
	C157.631790,199.845108 162.139557,199.371201 166.607788,198.411865 
	C168.291367,189.821625 164.848694,188.254227 150.373611,191.518387 
	C148.143967,189.088379 148.476349,186.995087 151.738144,186.171036 
	C155.413971,185.242386 159.268219,184.366974 163.011322,184.489838 
	C171.535461,184.769592 174.783630,188.510040 174.834747,197.157318 
	C174.878952,204.632904 174.843918,212.108963 174.843918,221.199280 
	C171.644806,219.903076 169.236908,218.927444 166.473785,218.143585 
M167.219467,208.337708 
	C167.092270,206.934662 166.965088,205.531616 166.845749,204.215210 
	C158.406998,203.633041 154.554108,205.272247 154.215088,209.501846 
	C153.936935,212.971954 155.581192,215.278290 159.112946,215.757660 
	C163.010666,216.286682 166.686111,213.213882 167.219467,208.337708 
z"/>
<path fill="#5B88A5" opacity="1.000000" stroke="none" 
	d="
M102.397736,185.302521 
	C106.976410,187.118622 108.914818,190.432190 108.974007,194.774155 
	C109.087265,203.082657 109.006920,211.393799 109.006920,220.998520 
	C106.271957,220.055328 104.135910,219.318680 100.863190,218.190048 
	C96.797211,220.975540 90.860893,222.973450 84.735558,218.973282 
	C80.964256,216.510422 80.207802,212.346237 81.609879,208.263733 
	C84.799423,198.976578 93.286491,199.850632 100.667618,198.882050 
	C102.997284,190.212631 99.429993,188.580063 84.543159,191.412384 
	C82.335106,188.723404 83.092453,186.547440 86.298447,186.133987 
	C91.492393,185.464111 96.773911,185.473190 102.397736,185.302521 
M92.863785,215.756027 
	C101.191124,214.943420 103.291374,211.939713 100.867325,204.012405 
	C96.439064,204.176422 91.266571,202.645142 88.936134,208.296082 
	C87.664841,211.378754 88.708740,214.158936 92.863785,215.756027 
z"/>
<path fill="#F89E29" opacity="1.000000" stroke="none" 
	d="
M115.994263,87.966003 
	C111.473679,82.748848 106.377029,77.912613 102.601433,72.202835 
	C99.122932,66.942329 99.785591,60.814728 104.231773,56.060501 
	C108.408722,51.594162 113.172462,47.668427 117.759842,43.597019 
	C120.739830,40.952217 123.993820,38.608971 126.902115,35.891975 
	C133.983704,29.276184 138.803467,21.696522 136.006302,11.205602 
	C136.529495,11.089609 137.052673,10.973617 137.575867,10.857624 
	C138.420609,13.057006 139.610809,15.190786 140.043350,17.468449 
	C141.197113,23.543934 139.356979,29.224075 135.777695,33.897007 
	C131.770889,39.128094 126.936890,43.739979 122.323914,48.486271 
	C120.015617,50.861282 117.226181,52.773079 114.952209,55.176220 
	C107.389229,63.168770 106.826157,70.592529 112.559166,80.023216 
	C113.939667,82.294113 114.648376,84.973396 115.822113,87.734093 
	C115.978195,88.003311 115.994263,87.966003 115.994263,87.966003 
z"/>
<path fill="#5B88A6" opacity="1.000000" stroke="none" 
	d="
M134.359573,217.452026 
	C132.632614,222.212341 128.868652,220.278183 126.056831,220.243698 
	C124.970642,220.230377 123.394966,218.110580 122.924393,216.663620 
	C119.589264,206.408707 116.483170,196.079315 113.286957,185.718155 
	C120.824608,184.431534 120.857986,184.421127 122.859711,190.836807 
	C124.985039,197.648636 127.038391,204.482941 130.056198,211.512741 
	C132.256958,202.872925 134.457703,194.233124 136.714417,185.373657 
	C138.901199,185.373657 141.155899,185.373657 144.782852,185.373657 
	C141.222336,196.369995 137.866425,206.734406 134.359573,217.452026 
z"/>
<path fill="#608BA8" opacity="1.000000" stroke="none" 
	d="
M168.326660,146.435028 
	C157.457397,152.197327 145.808792,153.654358 134.251205,154.486115 
	C113.645157,155.969055 92.993149,155.764816 72.574409,152.013412 
	C69.634422,151.473251 66.994835,149.298080 64.216225,147.879547 
	C66.698029,145.901550 68.967018,143.521408 71.723602,142.062637 
	C74.298332,140.700089 77.390717,140.315735 80.255257,139.500824 
	C80.386520,139.897324 80.517784,140.293823 80.649048,140.690338 
	C78.403633,142.083878 76.158211,143.477417 73.912796,144.870956 
	C73.937408,145.445709 73.962021,146.020462 73.986641,146.595215 
	C79.382607,147.737686 84.729012,149.444855 90.183235,149.923645 
	C112.298958,151.865067 134.413101,151.631470 156.358002,147.960693 
	C161.169037,147.155945 166.826920,147.150772 169.309174,141.235580 
	C169.768158,141.519806 170.227142,141.804016 170.686127,142.088242 
	C169.999496,143.469772 169.312866,144.851303 168.326660,146.435028 
z"/>
<path fill="#5C89A6" opacity="1.000000" stroke="none" 
	d="
M68.246506,185.027069 
	C68.246658,180.749878 68.246658,176.966980 68.246658,172.887238 
	C71.068512,172.887238 73.313179,172.887238 75.723358,172.887238 
	C75.723358,188.702332 76.170670,204.336487 75.399834,219.910355 
	C75.213783,223.669327 71.381958,227.571121 68.523170,230.780609 
	C65.839455,233.793533 62.974270,233.003967 61.193058,228.544769 
	C67.803070,225.246475 68.420784,219.124817 68.288300,212.513062 
	C68.108086,203.519150 68.245277,194.518875 68.246506,185.027069 
z"/>
<path fill="#F89D28" opacity="1.000000" stroke="none" 
	d="
M139.342514,46.331421 
	C142.535187,44.995613 145.391510,43.822639 148.247818,42.649662 
	C148.510101,43.068798 148.772385,43.487934 149.034653,43.907070 
	C147.733978,44.859943 146.378021,45.746586 145.142685,46.777740 
	C140.945007,50.281601 136.528946,53.577938 132.695084,57.447693 
	C129.158157,61.017738 129.019501,65.479675 131.569473,69.862450 
	C132.570068,71.582214 133.706802,73.227242 134.847336,74.860344 
	C140.791107,83.371086 139.065384,90.390366 128.248978,96.554031 
	C132.875504,88.851151 129.043274,84.073128 125.190872,78.893875 
	C118.686913,70.149849 119.717995,61.307232 127.917610,54.035492 
	C131.234451,51.093994 135.287903,48.983112 139.342514,46.331421 
z"/>
<path fill="#618CA8" opacity="1.000000" stroke="none" 
	d="
M97.954948,94.984756 
	C94.532364,96.396439 91.109772,97.808121 87.687180,99.219803 
	C87.736717,99.901627 87.786255,100.583458 87.835785,101.265282 
	C91.414665,101.860703 95.012772,103.061951 98.569183,102.949127 
	C116.166786,102.390823 133.753372,101.485245 150.020981,100.760986 
	C142.870819,108.203621 86.734665,110.282440 75.721504,101.421104 
	C82.599312,97.203278 89.093643,93.961205 97.566521,95.176376 
	C97.992889,95.005989 97.954948,94.984756 97.954948,94.984756 
z"/>
<path fill="#5987A5" opacity="1.000000" stroke="none" 
	d="
M114.305191,140.573288 
	C108.375778,139.363693 102.821510,138.434479 97.471344,136.826263 
	C95.790039,136.320892 93.814049,134.138504 93.520447,132.453964 
	C93.250443,130.904846 95.061195,128.993134 95.955299,127.241173 
	C96.479614,128.041977 97.003929,128.842758 97.528244,129.643555 
	C100.020424,130.510132 102.491646,132.042435 105.008614,132.121658 
	C113.427879,132.386658 121.877296,132.409119 130.288589,131.990509 
	C137.285217,131.642303 137.268631,131.309143 144.371307,135.339111 
	C134.539139,139.537155 124.802597,140.844391 114.305191,140.573288 
z"/>
<path fill="#5B88A5" opacity="1.000000" stroke="none" 
	d="
M125.890594,117.162949 
	C129.473846,116.723564 132.698181,116.666817 135.703903,115.827347 
	C139.997192,114.628288 143.445404,115.530586 146.793350,119.056183 
	C134.368729,122.581276 121.944389,124.122673 109.304100,123.341148 
	C104.207153,123.026024 99.096695,122.049530 94.139526,120.793396 
	C92.200890,120.302155 90.666153,118.216965 88.947464,116.857742 
	C90.423866,115.107559 91.900269,113.357368 93.376671,111.607185 
	C93.454201,112.228081 93.531731,112.848969 93.609261,113.469864 
	C96.094261,114.638214 98.526566,116.659882 101.073997,116.817162 
	C109.170937,117.317078 117.310768,117.122322 125.890594,117.162949 
z"/>
<path fill="#6992AD" opacity="1.000000" stroke="none" 
	d="
M106.537674,162.315979 
	C102.492706,161.891418 98.902176,161.531265 95.311646,161.171127 
	C95.294373,160.680954 95.277100,160.190781 95.259834,159.700623 
	C122.420929,160.542877 149.535324,160.989532 175.383560,150.708481 
	C175.619339,151.216217 175.855118,151.723953 176.090897,152.231689 
	C173.290222,153.834885 170.658661,156.299774 167.658875,156.888550 
	C156.136093,159.150177 144.549744,161.365555 132.880386,162.510330 
	C124.337425,163.348404 115.627571,162.485260 106.537674,162.315979 
z"/>
<path fill="#5E8AA7" opacity="1.000000" stroke="none" 
	d="
M173.193939,112.157364 
	C168.567169,116.275963 163.893936,119.537354 156.668289,120.299347 
	C160.246414,117.438644 163.134171,115.479462 165.606201,113.090149 
	C174.170029,104.812927 172.544571,97.284073 161.510147,93.473061 
	C165.075699,91.010925 170.772461,92.077248 174.450577,95.895233 
	C178.761749,100.370384 178.430893,105.585068 173.193939,112.157364 
z"/>
<path fill="#618CA8" opacity="1.000000" stroke="none" 
	d="
M98.003571,95.024857 
	C98.853165,94.387611 99.692085,93.731506 100.531006,93.075394 
	C100.697189,93.338409 100.863380,93.601418 101.029564,93.864426 
	C100.179665,94.125099 99.329773,94.385765 98.217407,94.815598 
	C97.954948,94.984756 97.992889,95.005989 98.003571,95.024857 
z"/>
<path fill="#F89E29" opacity="1.000000" stroke="none" 
	d="
M115.958717,88.010956 
	C116.598595,88.322945 117.257950,88.627274 117.917305,88.931610 
	C117.858734,89.029694 117.800163,89.127785 117.741585,89.225868 
	C117.299690,88.902153 116.857788,88.578438 116.205078,88.110367 
	C115.994263,87.966003 115.978195,88.003311 115.958717,88.010956 
z"/>
<path fill="#F89D28" opacity="1.000000" stroke="none" 
	d="
M127.543472,97.492874 
	C127.518387,97.484695 127.568558,97.501053 127.543472,97.492874 
z"/>
<path fill="#F8FAFB" opacity="1.000000" stroke="none" 
	d="
M167.219299,208.781921 
	C166.686111,213.213882 163.010666,216.286682 159.112946,215.757660 
	C155.581192,215.278290 153.936935,212.971954 154.215088,209.501846 
	C154.554108,205.272247 158.406998,203.633041 166.845749,204.215210 
	C166.965088,205.531616 167.092270,206.934662 167.219299,208.781921 
z"/>
<path fill="#F5F8FA" opacity="1.000000" stroke="none" 
	d="
M92.502121,215.638397 
	C88.708740,214.158936 87.664841,211.378754 88.936134,208.296082 
	C91.266571,202.645142 96.439064,204.176422 100.867325,204.012405 
	C103.291374,211.939713 101.191124,214.943420 92.502121,215.638397 
z"/>
</svg>