<svg version="1.1" id="Layer_1" xmlns="http://www.w3.org/2000/svg" xmlns:xlink="http://www.w3.org/1999/xlink" x="0px" y="0px"
	 width="100%" viewBox="0 0 640 640" enable-background="new 0 0 640 640" xml:space="preserve">
<path fill="#000000" opacity="1.000000" stroke="none" 
	d="
M489.350433,334.993927 
	C490.270203,347.921173 487.856262,359.393616 479.411591,369.011688 
	C471.555847,377.958984 461.655487,383.243896 449.702637,383.262756 
	C366.567169,383.393951 283.431305,383.384399 200.295731,383.292084 
	C179.179184,383.268646 160.689667,364.615784 160.666534,343.580505 
	C160.605148,287.768036 160.587875,231.955429 160.653732,176.142990 
	C160.676331,156.995636 172.581512,141.506256 191.074112,136.452621 
	C196.883972,134.864944 202.974960,135.189438 208.940826,135.171280 
	C241.928223,135.070847 274.916107,135.129486 307.903809,135.127350 
	C352.877289,135.124435 397.850830,135.090225 442.824249,135.131973 
	C451.501190,135.140030 460.111115,135.514328 467.960327,140.116287 
	C481.551819,148.084869 489.218750,159.751022 489.275024,175.555695 
	C489.463776,228.534973 489.348907,281.515350 489.350433,334.993927 
M211.519058,148.347092 
	C209.520157,148.347595 207.517441,148.429352 205.522934,148.335922 
	C187.176468,147.476486 173.719177,160.617599 173.935654,179.500153 
	C174.497070,228.473465 174.108170,277.457611 174.123749,326.437408 
	C174.124405,328.518799 173.803238,330.679169 174.678009,332.769073 
	C177.050323,332.119324 178.122116,330.313263 179.490128,328.948822 
	C197.770798,310.715759 215.981552,292.412567 234.270782,274.188110 
	C244.797836,263.698334 258.178711,263.712830 268.829895,274.172729 
	C275.366638,280.592163 281.800201,287.116669 288.276306,293.597809 
	C293.425781,298.751251 293.393707,298.725006 298.316925,293.679962 
	C318.676086,272.817017 339.026428,251.945404 359.436462,231.132294 
	C371.987732,218.333099 384.434845,218.248062 397.092621,230.896362 
	C421.718658,255.504044 446.271118,280.185394 470.894348,304.795929 
	C472.093597,305.994537 472.909332,307.925781 475.026367,307.845642 
	C475.978058,306.968750 475.783478,305.908569 475.783569,304.953156 
	C475.787659,261.471741 475.767090,217.990326 475.765137,174.508911 
	C475.765015,171.270538 474.946075,168.231659 473.580261,165.354980 
	C467.949799,153.496140 458.170807,148.358932 445.417542,148.354813 
	C367.782806,148.329773 290.148102,148.345596 211.519058,148.347092 
M346.910736,263.397430 
	C331.308899,279.368469 315.729126,295.361084 300.092743,311.298248 
	C294.956451,316.533356 291.840424,316.537415 286.583923,311.325073 
	C277.354980,302.173645 268.260376,292.886536 259.013092,283.753876 
	C254.000305,278.803284 249.054230,278.723419 244.148010,283.614471 
	C222.316116,305.378815 200.597855,327.257263 178.732544,348.987854 
	C176.165848,351.538727 176.235672,353.658875 178.084595,356.386780 
	C183.903961,364.972595 191.695923,369.789276 202.308929,369.785065 
	C283.960083,369.752838 365.611237,369.771301 447.262390,369.750092 
	C449.746185,369.749451 452.217529,369.730469 454.688507,369.042725 
	C471.154541,364.459808 480.804352,346.349609 475.557617,329.559143 
	C475.184204,328.364136 474.226868,327.257690 473.310730,326.339874 
	C444.117798,297.092651 414.926208,267.843994 385.650696,238.679550 
	C380.615631,233.663544 375.932404,233.852249 370.837250,238.964233 
	C362.956482,246.871048 355.188507,254.890228 346.910736,263.397430 
z"/>
<path fill="#000000" opacity="1.000000" stroke="none" 
	d="
M333.710266,484.608673 
	C332.475952,487.205017 331.328217,489.429718 330.374207,491.734650 
	C329.439850,493.992035 327.978912,495.110382 325.447144,495.148529 
	C322.755310,495.189117 321.123413,494.089935 319.990814,491.687531 
	C316.486908,484.255341 312.864929,476.878815 308.346161,469.716827 
	C308.346161,479.652130 308.368408,489.587494 308.337463,499.522705 
	C308.320038,505.122314 307.333649,505.879486 301.938416,505.341705 
	C299.619202,505.110504 298.716400,504.088898 298.717957,501.876526 
	C298.730194,484.388397 298.722656,466.900269 298.709473,449.412140 
	C298.707855,447.272491 299.482483,445.818207 301.841125,445.812927 
	C304.904449,445.806030 308.115845,444.932495 309.895386,448.926605 
	C313.688354,457.439972 317.770477,465.825378 321.794006,474.234558 
	C322.709290,476.147430 323.307983,478.279633 325.063019,479.813416 
	C327.043945,478.977234 327.243317,476.970856 327.969391,475.413635 
	C331.979095,466.813843 336.046570,458.235016 339.775665,449.512817 
	C341.641144,445.149567 345.039886,445.489380 348.522552,445.879822 
	C352.348938,446.308838 351.291992,449.492340 351.302765,451.762482 
	C351.379456,467.918121 351.286438,484.074646 351.376495,500.230164 
	C351.394989,503.548553 350.881226,505.501648 346.805054,505.459839 
	C342.954498,505.420319 341.499939,504.277283 341.584198,500.302246 
	C341.798553,490.187592 341.655518,480.065369 340.839233,469.700195 
	C338.520050,474.557526 336.200897,479.414825 333.710266,484.608673 
z"/>
<path fill="#000000" opacity="1.000000" stroke="none" 
	d="
M144.659348,467.995605 
	C144.665649,461.666534 144.806702,455.832306 144.630630,450.007660 
	C144.515015,446.182587 146.635086,445.697021 149.688919,445.699249 
	C152.624115,445.701355 154.392426,446.348541 154.372177,449.840424 
	C154.272659,466.997192 154.337921,484.154846 154.305191,501.312134 
	C154.302139,502.915039 154.560516,504.992279 152.206696,505.177399 
	C148.975388,505.431488 145.725494,506.147766 143.380753,502.447968 
	C136.606110,491.758423 129.544754,481.250610 122.594429,470.672394 
	C121.874428,469.576599 121.143959,468.487640 120.380974,467.339264 
	C118.650154,468.330017 119.380127,469.800903 119.371841,470.943573 
	C119.299339,480.937622 119.208130,490.934296 119.376556,500.925903 
	C119.437515,504.542267 117.917946,505.481598 114.605064,505.421356 
	C111.525177,505.365265 109.580582,504.954498 109.610054,501.128693 
	C109.740913,484.138916 109.653404,467.147552 109.682114,450.156830 
	C109.685112,448.383148 109.382774,446.198181 112.004829,445.927521 
	C114.958878,445.622620 117.953911,445.118469 120.027115,448.326141 
	C125.089180,456.158234 130.289474,463.901154 135.453735,471.666962 
	C138.117081,475.671967 140.822311,479.649078 144.659439,483.476898 
	C144.659439,478.482788 144.659439,473.488678 144.659348,467.995605 
z"/>
<path fill="#000000" opacity="1.000000" stroke="none" 
	d="
M210.284500,501.420410 
	C200.984192,507.490753 188.863525,506.970856 181.670334,500.626984 
	C177.080002,496.578613 175.256775,491.287628 174.980484,485.538483 
	C174.598206,477.584259 174.168030,469.599335 175.649185,461.659180 
	C177.575089,451.334930 185.885849,445.338470 198.130127,445.661224 
	C208.144485,445.925201 216.036346,452.895874 217.354599,462.516571 
	C218.512711,470.968567 218.497833,479.391815 217.532822,487.872986 
	C216.914078,493.310822 214.751251,497.717468 210.284500,501.420410 
M198.768738,454.705688 
	C190.410629,453.961060 185.586517,457.914307 185.310669,466.093262 
	C185.097733,472.407227 185.126587,478.738098 185.304840,485.054199 
	C185.512238,492.402740 189.579330,496.641815 196.134735,496.739868 
	C203.002686,496.842590 207.372818,492.589874 207.630264,485.104889 
	C207.847473,478.790039 207.787033,472.458923 207.636871,466.140076 
	C207.505951,460.631317 205.117722,456.564026 198.768738,454.705688 
z"/>
<path fill="#000000" opacity="1.000000" stroke="none" 
	d="
M450.189148,445.659576 
	C464.066772,445.678711 472.375488,452.232086 472.916748,463.223572 
	C467.173401,465.567444 465.161163,464.992218 462.092529,460.050140 
	C459.431000,455.763794 455.435272,453.912109 450.627594,454.597565 
	C445.595032,455.315094 442.089020,458.194641 441.215393,463.540497 
	C439.863953,471.810211 439.613922,480.111023 441.325531,488.335510 
	C442.441681,493.698822 446.323456,496.627533 451.613647,496.745087 
	C457.425964,496.874237 461.956329,493.749512 463.397156,488.617554 
	C464.950012,483.086578 463.687439,481.323425 457.934784,481.363434 
	C454.384796,481.388123 451.110443,481.563934 451.625397,476.353516 
	C451.868164,473.897339 452.678223,472.690063 455.222137,472.715607 
	C460.219543,472.765808 465.218231,472.753510 470.215668,472.699707 
	C472.681793,472.673157 473.896759,473.795624 474.016113,476.250946 
	C474.275970,481.596283 474.238129,486.948364 472.606964,492.080475 
	C469.370789,502.262634 459.822418,507.035461 446.644867,505.274506 
	C438.245392,504.152069 431.138794,496.060730 430.759766,486.622009 
	C430.465881,479.303528 430.433075,471.951324 430.768341,464.636292 
	C431.250732,454.110321 438.894867,446.685333 450.189148,445.659576 
z"/>
<path fill="#000000" opacity="1.000000" stroke="none" 
	d="
M512.115906,470.813293 
	C516.424316,470.810852 520.256165,470.914520 524.079224,470.775543 
	C527.378601,470.655579 528.369141,472.175629 528.381531,475.302582 
	C528.394592,478.575165 527.478210,480.296661 523.880493,480.190277 
	C518.725647,480.037903 513.561096,480.242645 508.403748,480.139771 
	C505.460236,480.081024 504.194611,481.215942 504.233551,484.243744 
	C504.430969,499.607788 502.564392,496.279358 516.023010,496.634888 
	C520.181213,496.744751 524.347900,496.773376 528.504211,496.638794 
	C531.726807,496.534393 532.374207,498.220062 532.351196,500.990143 
	C532.328613,503.725464 531.733704,505.401276 528.495117,505.368256 
	C518.343506,505.264679 508.189758,505.278900 498.037842,505.364807 
	C494.958191,505.390869 493.920654,503.876984 493.923340,501.079834 
	C493.939575,484.103271 493.948517,467.126678 493.916229,450.150177 
	C493.910278,447.029022 495.230255,445.671417 498.438019,445.703766 
	C508.256805,445.802856 518.078796,445.829285 527.896362,445.677917 
	C531.502075,445.622345 532.359436,447.240082 532.404724,450.514740 
	C532.453857,454.062225 530.977783,455.202118 527.647339,455.140991 
	C521.325134,455.024933 514.997437,455.211395 508.674774,455.107880 
	C505.532867,455.056458 503.972351,456.201355 504.246826,459.481476 
	C504.357452,460.803650 504.262329,462.142944 504.263702,463.474426 
	C504.271179,470.780090 504.271484,470.780090 512.115906,470.813293 
z"/>
<path fill="#000000" opacity="1.000000" stroke="none" 
	d="
M380.468567,467.550476 
	C382.832611,461.098175 385.138641,455.039703 387.251129,448.914490 
	C388.113647,446.413605 389.716614,445.668671 392.164948,445.713654 
	C394.483551,445.756226 396.361694,446.081055 397.288757,448.652222 
	C403.880280,466.933685 410.541321,485.190094 417.159363,503.462006 
	C417.258484,503.735748 417.091675,504.105835 417.044495,504.430359 
	C409.671448,506.818329 407.771088,506.066620 405.373383,499.032013 
	C404.121521,495.359222 402.200348,493.444702 398.133698,493.905914 
	C395.834808,494.166626 393.453094,494.184662 391.158600,493.903839 
	C384.492188,493.087982 379.766083,494.292175 378.091614,502.147095 
	C376.850922,507.967102 371.573151,504.473450 366.996063,505.394318 
	C370.972290,492.150604 375.925842,480.125183 380.468567,467.550476 
M389.067230,484.903046 
	C392.600037,484.606842 396.249878,485.577728 400.203583,484.041931 
	C397.731476,476.698212 395.350830,469.626190 392.549133,461.303497 
	C389.912781,468.864075 387.768768,475.115234 385.546295,481.338379 
	C384.584137,484.032593 385.556976,485.078583 389.067230,484.903046 
z"/>
<path fill="#000000" opacity="1.000000" stroke="none" 
	d="
M266.599365,498.570435 
	C266.609833,482.626190 266.667816,467.138489 266.582672,451.651520 
	C266.563110,448.094818 266.814575,445.596405 271.514923,445.633423 
	C276.283325,445.670959 276.363831,448.360901 276.349579,451.812164 
	C276.283478,467.798920 276.331696,483.786163 276.297272,499.773132 
	C276.286377,504.838074 272.896820,507.106415 268.168488,505.170593 
	C265.049133,503.893524 267.047333,501.100922 266.599365,498.570435 
z"/>
<path fill="#000000" opacity="1.000000" stroke="none" 
	d="
M247.633469,186.270294 
	C256.731506,194.211349 259.434235,203.835831 256.053802,214.885056 
	C252.812469,225.479630 243.600540,232.126144 232.090912,232.950653 
	C218.505325,233.923874 206.044373,222.293564 205.024673,207.688614 
	C204.110474,194.594696 215.554153,181.546051 228.625458,180.677124 
	C235.538437,180.217575 241.843781,181.689468 247.633469,186.270294 
M218.770691,208.073761 
	C219.060898,209.196350 219.229614,210.368240 219.661880,211.433167 
	C221.766678,216.618393 227.787628,220.191910 232.779297,219.293762 
	C238.743027,218.220734 243.309311,213.496857 243.700958,207.995117 
	C244.141861,201.801697 240.919220,196.694031 235.259888,194.859406 
	C227.906128,192.475510 219.038818,196.732422 218.770691,208.073761 
z"/>
</svg>