<svg version="1.1" id="Layer_1" xmlns="http://www.w3.org/2000/svg" xmlns:xlink="http://www.w3.org/1999/xlink" x="0px" y="0px"
	 width="100%" viewBox="0 0 240 240" enable-background="new 0 0 240 240" xml:space="preserve">
<path fill="#6FB442" opacity="1.000000" stroke="none" 
	d="
M1.000000,142.000000 
	C1.000000,128.979111 1.000000,115.958214 1.353240,102.325508 
	C2.151295,100.117470 2.682900,98.539787 3.028465,96.922356 
	C19.601212,19.352499 106.827637,-21.271988 176.639511,16.413446 
	C187.211700,22.120466 196.650650,29.926805 207.229797,37.184708 
	C210.810883,31.028208 214.801315,24.167992 218.932327,17.066080 
	C219.485626,17.909964 219.874756,18.276762 219.993088,18.716440 
	C225.692673,39.895473 231.487839,61.050037 236.978760,82.283249 
	C238.736633,89.080872 239.682556,96.088478 241.000000,103.000000 
	C241.000000,111.687561 241.000000,120.375122 240.641083,129.719666 
	C239.840424,133.168030 239.451050,135.968887 238.949112,138.749420 
	C230.504974,185.527710 203.906754,217.218246 159.417114,233.694336 
	C150.880371,236.855804 141.819229,238.601303 133.000000,241.000000 
	C125.312424,241.000000 117.624847,241.000000 109.290909,240.626068 
	C105.116577,239.569595 101.591042,238.874207 98.060242,238.206650 
	C77.947884,234.404144 60.014889,225.933731 44.555016,213.058868 
	C46.888618,212.753479 48.874832,212.658569 50.712200,212.085999 
	C56.259247,210.357376 59.004051,205.936142 57.930016,200.804062 
	C56.856731,195.675568 52.128979,192.295761 46.859234,192.889725 
	C41.447495,193.499695 37.816326,197.933731 37.998077,203.687515 
	C38.033634,204.813095 38.005207,205.940689 37.681705,206.965759 
	C19.759226,190.300980 8.634905,170.070801 3.121837,146.627747 
	C2.741016,145.008392 1.722149,143.539078 1.000000,142.000000 
M233.672775,93.957565 
	C230.856659,72.194756 225.318237,51.130695 217.915726,29.963703 
	C217.057999,30.998762 216.697662,31.345131 216.440811,31.756159 
	C198.439270,60.563362 171.989944,76.675011 138.968216,81.966415 
	C124.219467,84.329750 109.085655,84.200172 94.261559,86.201614 
	C61.910622,90.569420 38.634922,114.446861 36.799526,145.198441 
	C35.875885,160.673920 39.770439,174.770554 53.655663,184.002106 
	C55.733139,185.383301 59.087452,186.113754 61.477657,185.553116 
	C79.939941,181.222748 98.640968,177.520355 116.639717,171.685333 
	C153.302429,159.799652 182.154755,137.469101 201.603699,103.717979 
	C202.102325,102.852669 202.841812,102.126160 203.468979,101.334908 
	C203.979568,101.591537 204.490143,101.848167 205.000732,102.104790 
	C202.482819,107.970406 200.446716,114.103004 197.368515,119.658165 
	C177.929459,154.739487 149.470551,178.847000 110.659462,190.223862 
	C99.848732,193.392853 89.128212,196.869598 78.366302,200.205154 
	C79.965515,201.593002 81.493217,201.985886 83.010269,201.948364 
	C90.789803,201.755920 98.564880,201.376236 106.344658,201.202957 
	C126.957100,200.743774 147.706116,201.697525 168.154068,199.638626 
	C201.819916,196.248856 223.087555,177.346069 231.441711,145.938766 
	C235.913437,129.127396 235.965103,112.018700 233.672775,93.957565 
z"/>
<path fill="#FDFEFD" opacity="1.000000" stroke="none" 
	d="
M241.000000,102.531342 
	C239.682556,96.088478 238.736633,89.080872 236.978760,82.283249 
	C231.487839,61.050037 225.692673,39.895473 219.993088,18.716440 
	C219.874756,18.276762 219.485626,17.909964 218.932327,17.066080 
	C214.801315,24.167992 210.810883,31.028208 207.229797,37.184708 
	C196.650650,29.926805 187.211700,22.120466 176.639511,16.413446 
	C106.827637,-21.271988 19.601212,19.352499 3.028465,96.922356 
	C2.682900,98.539787 2.151295,100.117470 1.353240,101.856850 
	C1.000000,68.366600 1.000000,34.733200 1.000000,1.049900 
	C80.887657,1.049900 160.775360,1.049900 241.000000,1.049900 
	C241.000000,34.686813 241.000000,68.374748 241.000000,102.531342 
z"/>
<path fill="#FEFEFD" opacity="1.000000" stroke="none" 
	d="
M133.468658,241.000000 
	C141.819229,238.601303 150.880371,236.855804 159.417114,233.694336 
	C203.906754,217.218246 230.504974,185.527710 238.949112,138.749420 
	C239.451050,135.968887 239.840424,133.168030 240.641083,130.188324 
	C241.000000,166.925949 241.000000,203.851883 241.000000,241.000000 
	C205.312744,241.000000 169.625031,241.000000 133.468658,241.000000 
z"/>
<path fill="#FEFEFD" opacity="1.000000" stroke="none" 
	d="
M44.139572,213.050980 
	C60.014889,225.933731 77.947884,234.404144 98.060242,238.206650 
	C101.591042,238.874207 105.116577,239.569595 108.822273,240.626068 
	C73.076241,241.000000 37.152473,241.000000 1.000000,241.000000 
	C1.000000,208.312790 1.000000,175.625061 1.000000,142.468658 
	C1.722149,143.539078 2.741016,145.008392 3.121837,146.627747 
	C8.634905,170.070801 19.759226,190.300980 37.661964,206.921906 
	C37.966808,206.979660 37.882671,206.933044 38.002331,207.176025 
	C38.416771,207.618546 38.711552,207.818085 39.180138,208.302551 
	C40.949150,210.075287 42.544361,211.563141 44.139572,213.050980 
z"/>
<path fill="#FDFEFD" opacity="1.000000" stroke="none" 
	d="
M233.725098,94.405907 
	C235.965103,112.018700 235.913437,129.127396 231.441711,145.938766 
	C223.087555,177.346069 201.819916,196.248856 168.154068,199.638626 
	C147.706116,201.697525 126.957100,200.743774 106.344658,201.202957 
	C98.564880,201.376236 90.789803,201.755920 83.010269,201.948364 
	C81.493217,201.985886 79.965515,201.593002 78.366302,200.205154 
	C89.128212,196.869598 99.848732,193.392853 110.659462,190.223862 
	C149.470551,178.847000 177.929459,154.739487 197.368515,119.658165 
	C200.446716,114.103004 202.482819,107.970406 205.000732,102.104790 
	C204.490143,101.848167 203.979568,101.591537 203.468979,101.334908 
	C202.841812,102.126160 202.102325,102.852669 201.603699,103.717979 
	C182.154755,137.469101 153.302429,159.799652 116.639717,171.685333 
	C98.640968,177.520355 79.939941,181.222748 61.477657,185.553116 
	C59.087452,186.113754 55.733139,185.383301 53.655663,184.002106 
	C39.770439,174.770554 35.875885,160.673920 36.799526,145.198441 
	C38.634922,114.446861 61.910622,90.569420 94.261559,86.201614 
	C109.085655,84.200172 124.219467,84.329750 138.968216,81.966415 
	C171.989944,76.675011 198.439270,60.563362 216.440811,31.756159 
	C216.697662,31.345131 217.057999,30.998762 217.915726,29.963703 
	C225.318237,51.130695 230.856659,72.194756 233.725098,94.405907 
z"/>
<path fill="#FAFCF9" opacity="1.000000" stroke="none" 
	d="
M44.555016,213.058868 
	C42.544361,211.563141 40.949150,210.075287 39.078556,208.017807 
	C38.496342,207.276459 38.189507,207.104752 37.882671,206.933044 
	C37.882671,206.933044 37.966808,206.979660 37.986549,207.023499 
	C38.005207,205.940689 38.033634,204.813095 37.998077,203.687515 
	C37.816326,197.933731 41.447495,193.499695 46.859234,192.889725 
	C52.128979,192.295761 56.856731,195.675568 57.930016,200.804062 
	C59.004051,205.936142 56.259247,210.357376 50.712200,212.085999 
	C48.874832,212.658569 46.888618,212.753479 44.555016,213.058868 
z"/>
<path fill="#6FB442" opacity="1.000000" stroke="none" 
	d="
M38.002331,207.176025 
	C38.189507,207.104752 38.496342,207.276459 38.904755,207.732910 
	C38.711552,207.818085 38.416771,207.618546 38.002331,207.176025 
z"/>
</svg>