<svg version="1.1" id="Layer_1" xmlns="http://www.w3.org/2000/svg" xmlns:xlink="http://www.w3.org/1999/xlink" x="0px" y="0px"
	 width="100%" viewBox="0 0 160 240" enable-background="new 0 0 160 240" xml:space="preserve">
<path fill="#050505" opacity="1.000000" stroke="none" 
	d="
M1.000000,194.000000 
	C1.000000,137.979111 1.000000,81.958206 1.275655,25.256889 
	C3.092092,19.214207 6.868002,15.364115 11.690683,13.581920 
	C21.583134,9.926220 31.773846,7.051639 41.913952,4.103780 
	C46.520733,2.764528 51.299335,2.016316 56.000000,1.000000 
	C59.361286,1.000000 62.722576,1.000000 66.625206,1.316020 
	C68.111031,1.421360 69.055519,1.210679 70.000000,1.000000 
	C77.020950,1.000000 84.041893,1.000000 91.716141,1.266121 
	C93.246284,1.354827 94.123146,1.177413 95.000000,1.000000 
	C98.030594,1.000000 101.061188,1.000000 104.644249,1.401482 
	C114.472115,3.466241 123.878944,4.611837 132.989410,6.924782 
	C144.194077,9.769398 155.565140,12.952301 161.000000,25.000000 
	C161.000000,25.750000 161.000000,26.500000 160.708176,27.923326 
	C160.279053,29.572985 160.021973,30.549271 160.021591,31.525654 
	C160.001968,83.287567 159.996216,135.049500 160.045547,186.811371 
	C160.046890,188.207886 160.667938,189.603806 161.000000,191.000000 
	C161.000000,191.750000 161.000000,192.500000 160.715683,193.825806 
	C157.110931,202.831940 144.210388,211.008820 134.716797,210.699829 
	C134.645935,210.376266 134.558365,210.055038 134.510376,209.728012 
	C133.446320,202.476868 134.247009,196.528824 143.071732,194.547150 
	C145.042465,194.104584 147.791016,191.097168 147.858658,189.188309 
	C148.292984,176.932114 148.080460,164.653000 148.080460,152.732452 
	C103.200882,167.315231 58.667656,167.160324 13.917831,152.835876 
	C13.917831,162.505356 14.011114,172.485794 13.881007,182.463303 
	C13.809015,187.984146 13.014607,193.654648 19.667528,195.195190 
	C18.686714,199.878433 17.856770,203.841278 16.980780,208.024002 
	C9.848505,205.205017 4.035408,201.207581 1.000000,194.000000 
M103.769600,95.226288 
	C107.571556,94.816376 111.504929,94.891006 115.149963,93.902466 
	C124.720779,91.306839 134.210403,88.381699 143.621323,85.253738 
	C145.367615,84.673309 147.827271,82.566887 147.868210,81.106186 
	C148.209854,68.915703 148.062210,56.711510 148.062210,44.883129 
	C103.054855,58.775124 58.681831,58.706043 13.920440,44.890900 
	C13.920440,54.355522 13.920431,64.132080 13.920442,73.908638 
	C13.920451,83.726494 14.094722,83.993866 23.053265,87.738983 
	C23.511646,87.930611 24.011183,88.021149 24.482031,88.185974 
	C50.010273,97.121834 76.323059,97.478821 103.769600,95.226288 
M13.921668,101.015579 
	C13.921295,111.671288 13.775547,122.330849 14.057136,132.979095 
	C14.106702,134.853439 15.488191,137.564636 17.040895,138.366211 
	C22.015533,140.934326 27.196306,143.419312 32.588051,144.810150 
	C60.227081,151.939758 88.267502,152.197235 116.229950,147.563934 
	C126.053894,145.936111 135.470566,141.733185 144.973663,138.420563 
	C146.301773,137.957611 147.918137,135.870682 147.944366,134.507462 
	C148.176224,122.449196 148.078964,110.384590 148.078964,97.807266 
	C134.667038,103.996712 121.021935,106.917908 107.112030,107.999771 
	C76.131645,110.409325 45.276848,110.668617 15.703234,98.699753 
	C15.360139,98.560905 14.527786,99.630959 13.921668,101.015579 
M122.784615,38.324390 
	C131.741089,36.324306 140.828201,34.631824 148.769516,27.583328 
	C145.001816,25.537277 142.156540,23.107962 138.932251,22.396557 
	C126.006927,19.544729 113.060493,16.363832 99.943779,14.896464 
	C75.800636,12.195566 51.758659,13.854917 28.278387,20.482979 
	C23.208685,21.914064 18.539490,24.763952 12.821086,27.351610 
	C20.998901,34.421040 29.590778,36.402340 38.158321,38.094048 
	C66.043442,43.600113 93.999535,43.573406 122.784615,38.324390 
z"/>
<path fill="#FCFCFC" opacity="1.000000" stroke="none" 
	d="
M1.000000,194.468658 
	C4.035408,201.207581 9.848505,205.205017 16.980780,208.024002 
	C17.856770,203.841278 18.686714,199.878433 19.667528,195.195190 
	C13.014607,193.654648 13.809015,187.984146 13.881007,182.463303 
	C14.011114,172.485794 13.917831,162.505356 13.917831,152.835876 
	C58.667656,167.160324 103.200882,167.315231 148.080460,152.732452 
	C148.080460,164.653000 148.292984,176.932114 147.858658,189.188309 
	C147.791016,191.097168 145.042465,194.104584 143.071732,194.547150 
	C134.247009,196.528824 133.446320,202.476868 134.510376,209.728012 
	C134.558365,210.055038 134.645935,210.376266 134.716797,210.699829 
	C144.210388,211.008820 157.110931,202.831940 160.715683,194.200806 
	C161.000000,209.602341 161.000000,225.204666 161.000000,241.000000 
	C141.312866,241.000000 121.625092,241.000000 101.480713,240.648529 
	C102.627754,237.465317 104.231407,234.633545 105.798637,231.866104 
	C103.554024,230.216446 101.732552,228.877777 99.950218,227.567871 
	C106.553078,216.169922 106.312477,206.329681 99.431770,198.071777 
	C93.378349,190.806763 83.461426,188.844101 75.582565,193.351791 
	C66.455994,198.573318 62.402313,210.493027 66.116859,221.185333 
	C69.274185,230.273682 78.550079,236.100632 87.489677,234.998093 
	C89.456429,234.755539 91.772324,235.498062 93.599007,236.430420 
	C95.908463,237.609192 97.881721,239.446655 100.000000,241.000000 
	C67.099182,241.000000 34.198364,241.000000 1.000000,241.000000 
	C1.000000,225.647049 1.000000,210.292191 1.000000,194.468658 
M51.339203,205.696655 
	C53.888172,204.672577 56.437138,203.648499 59.016876,202.612045 
	C54.714741,194.839905 46.416599,191.923004 37.373695,194.734283 
	C32.030476,196.395370 28.475033,200.661606 28.082813,205.882507 
	C27.709967,210.845551 30.501606,215.110672 35.894245,217.438187 
	C39.083794,218.814819 42.571213,219.597031 45.571171,221.277603 
	C47.113186,222.141434 47.880459,224.388229 48.997833,226.010086 
	C47.255737,226.958359 45.598965,228.359039 43.744003,228.708923 
	C42.311272,228.979141 39.934349,228.435364 39.175388,227.386490 
	C35.106415,221.763229 31.089247,224.741882 26.894245,226.759674 
	C29.322910,235.298096 37.702160,239.500671 48.251221,237.702408 
	C55.121544,236.531235 59.338337,232.346161 60.003353,226.038696 
	C60.691410,219.512695 57.752403,214.847626 51.073990,212.189392 
	C47.689533,210.842285 44.140293,209.895462 40.805851,208.445114 
	C39.866070,208.036377 38.806324,206.407761 38.925148,205.483002 
	C39.043144,204.564682 40.733429,203.012833 41.460831,203.153397 
	C44.557407,203.751801 47.552608,204.874802 51.339203,205.696655 
M123.786629,205.528870 
	C123.786629,201.775345 123.786629,198.021820 123.786629,194.365356 
	C119.777611,194.365356 116.518921,194.365356 113.381439,194.365356 
	C113.381439,209.008484 113.381439,223.364944 113.381439,237.495300 
	C122.855133,237.495300 131.920807,237.495300 140.958893,237.495300 
	C140.958893,234.210098 140.958893,231.287888 140.958893,227.907806 
	C135.125610,227.907806 129.554184,227.907806 123.786629,227.907806 
	C123.786629,220.465836 123.786629,213.492477 123.786629,205.528870 
z"/>
<path fill="#060606" opacity="1.000000" stroke="none" 
	d="
M100.250000,241.000000 
	C97.881721,239.446655 95.908463,237.609192 93.599007,236.430420 
	C91.772324,235.498062 89.456429,234.755539 87.489677,234.998093 
	C78.550079,236.100632 69.274185,230.273682 66.116859,221.185333 
	C62.402313,210.493027 66.455994,198.573318 75.582565,193.351791 
	C83.461426,188.844101 93.378349,190.806763 99.431770,198.071777 
	C106.312477,206.329681 106.553078,216.169922 99.950218,227.567871 
	C101.732552,228.877777 103.554024,230.216446 105.798637,231.866104 
	C104.231407,234.633545 102.627754,237.465317 101.012054,240.648529 
	C101.000000,241.000000 100.500000,241.000000 100.250000,241.000000 
M86.903656,202.007263 
	C82.428955,200.866486 79.535995,202.960907 77.636986,206.736649 
	C74.970940,212.037476 75.587975,217.519852 79.124535,221.473251 
	C82.684631,225.453003 87.770073,225.101273 90.914688,220.657837 
	C95.167145,214.649002 93.870087,207.343491 86.903656,202.007263 
z"/>
<path fill="#FBFBFB" opacity="1.000000" stroke="none" 
	d="
M161.000000,24.531307 
	C155.565140,12.952301 144.194077,9.769398 132.989410,6.924782 
	C123.878944,4.611837 114.472115,3.466241 105.098358,1.401482 
	C123.563965,1.000000 142.127930,1.000000 161.000000,1.000000 
	C161.000000,8.684794 161.000000,16.373705 161.000000,24.531307 
z"/>
<path fill="#FAFAFA" opacity="1.000000" stroke="none" 
	d="
M55.531342,1.000000 
	C51.299335,2.016316 46.520733,2.764528 41.913952,4.103780 
	C31.773846,7.051639 21.583134,9.926220 11.690683,13.581920 
	C6.868002,15.364115 3.092092,19.214207 1.275655,24.788231 
	C1.000000,17.044569 1.000000,9.089138 1.000000,1.000000 
	C19.020702,1.000000 37.041691,1.000000 55.531342,1.000000 
z"/>
<path fill="#0D0D0D" opacity="1.000000" stroke="none" 
	d="
M161.000000,190.531342 
	C160.667938,189.603806 160.046890,188.207886 160.045547,186.811371 
	C159.996216,135.049500 160.001968,83.287567 160.021591,31.525654 
	C160.021973,30.549271 160.279053,29.572985 160.708176,28.298326 
	C161.000000,82.020897 161.000000,136.041794 161.000000,190.531342 
z"/>
<path fill="#4C4C4C" opacity="1.000000" stroke="none" 
	d="
M69.625000,1.000000 
	C69.055519,1.210679 68.111031,1.421360 67.083275,1.316020 
	C67.750000,1.000000 68.500000,1.000000 69.625000,1.000000 
z"/>
<path fill="#4C4C4C" opacity="1.000000" stroke="none" 
	d="
M94.625000,1.000000 
	C94.123146,1.177413 93.246284,1.354827 92.184715,1.266121 
	C92.750000,1.000000 93.500000,1.000000 94.625000,1.000000 
z"/>
<path fill="#FDFDFD" opacity="1.000000" stroke="none" 
	d="
M103.316147,95.292320 
	C76.323059,97.478821 50.010273,97.121834 24.482031,88.185974 
	C24.011183,88.021149 23.511646,87.930611 23.053265,87.738983 
	C14.094722,83.993866 13.920451,83.726494 13.920442,73.908638 
	C13.920431,64.132080 13.920440,54.355522 13.920440,44.890900 
	C58.681831,58.706043 103.054855,58.775124 148.062210,44.883129 
	C148.062210,56.711510 148.209854,68.915703 147.868210,81.106186 
	C147.827271,82.566887 145.367615,84.673309 143.621323,85.253738 
	C134.210403,88.381699 124.720779,91.306839 115.149963,93.902466 
	C111.504929,94.891006 107.571556,94.816376 103.316147,95.292320 
z"/>
<path fill="#FDFDFD" opacity="1.000000" stroke="none" 
	d="
M13.922743,100.576141 
	C14.527786,99.630959 15.360139,98.560905 15.703234,98.699753 
	C45.276848,110.668617 76.131645,110.409325 107.112030,107.999771 
	C121.021935,106.917908 134.667038,103.996712 148.078964,97.807266 
	C148.078964,110.384590 148.176224,122.449196 147.944366,134.507462 
	C147.918137,135.870682 146.301773,137.957611 144.973663,138.420563 
	C135.470566,141.733185 126.053894,145.936111 116.229950,147.563934 
	C88.267502,152.197235 60.227081,151.939758 32.588051,144.810150 
	C27.196306,143.419312 22.015533,140.934326 17.040895,138.366211 
	C15.488191,137.564636 14.106702,134.853439 14.057136,132.979095 
	C13.775547,122.330849 13.921295,111.671288 13.922743,100.576141 
z"/>
<path fill="#FCFCFC" opacity="1.000000" stroke="none" 
	d="
M122.372284,38.422306 
	C93.999535,43.573406 66.043442,43.600113 38.158321,38.094048 
	C29.590778,36.402340 20.998901,34.421040 12.821086,27.351610 
	C18.539490,24.763952 23.208685,21.914064 28.278387,20.482979 
	C51.758659,13.854917 75.800636,12.195566 99.943779,14.896464 
	C113.060493,16.363832 126.006927,19.544729 138.932251,22.396557 
	C142.156540,23.107962 145.001816,25.537277 148.769516,27.583328 
	C140.828201,34.631824 131.741089,36.324306 122.372284,38.422306 
z"/>
<path fill="#080808" opacity="1.000000" stroke="none" 
	d="
M50.962013,205.751465 
	C47.552608,204.874802 44.557407,203.751801 41.460831,203.153397 
	C40.733429,203.012833 39.043144,204.564682 38.925148,205.483002 
	C38.806324,206.407761 39.866070,208.036377 40.805851,208.445114 
	C44.140293,209.895462 47.689533,210.842285 51.073990,212.189392 
	C57.752403,214.847626 60.691410,219.512695 60.003353,226.038696 
	C59.338337,232.346161 55.121544,236.531235 48.251221,237.702408 
	C37.702160,239.500671 29.322910,235.298096 26.894245,226.759674 
	C31.089247,224.741882 35.106415,221.763229 39.175388,227.386490 
	C39.934349,228.435364 42.311272,228.979141 43.744003,228.708923 
	C45.598965,228.359039 47.255737,226.958359 48.997833,226.010071 
	C47.880459,224.388229 47.113186,222.141434 45.571171,221.277603 
	C42.571213,219.597031 39.083794,218.814819 35.894245,217.438187 
	C30.501606,215.110672 27.709967,210.845551 28.082813,205.882507 
	C28.475033,200.661606 32.030476,196.395370 37.373695,194.734283 
	C46.416599,191.923004 54.714741,194.839905 59.016876,202.612045 
	C56.437138,203.648499 53.888172,204.672577 50.962013,205.751465 
z"/>
<path fill="#090909" opacity="1.000000" stroke="none" 
	d="
M123.786629,206.023987 
	C123.786629,213.492477 123.786629,220.465836 123.786629,227.907806 
	C129.554184,227.907806 135.125610,227.907806 140.958893,227.907806 
	C140.958893,231.287888 140.958893,234.210098 140.958893,237.495300 
	C131.920807,237.495300 122.855133,237.495300 113.381439,237.495300 
	C113.381439,223.364944 113.381439,209.008484 113.381439,194.365356 
	C116.518921,194.365356 119.777611,194.365356 123.786629,194.365356 
	C123.786629,198.021820 123.786629,201.775345 123.786629,206.023987 
z"/>
<path fill="#FAFAFA" opacity="1.000000" stroke="none" 
	d="
M87.278946,202.150467 
	C93.870087,207.343491 95.167145,214.649002 90.914688,220.657837 
	C87.770073,225.101273 82.684631,225.453003 79.124535,221.473251 
	C75.587975,217.519852 74.970940,212.037476 77.636986,206.736649 
	C79.535995,202.960907 82.428955,200.866486 87.278946,202.150467 
z"/>
</svg>