<svg version="1.1" id="Layer_1" xmlns="http://www.w3.org/2000/svg" xmlns:xlink="http://www.w3.org/1999/xlink" x="0px" y="0px"
	 width="100%" viewBox="0 0 240 240" enable-background="new 0 0 240 240" xml:space="preserve">
<path fill="#FEFEFE" opacity="1.000000" stroke="none" 
	d="
M160.000000,241.000000 
	C106.666672,241.000000 53.833340,241.000000 1.000007,241.000000 
	C1.000005,161.000015 1.000005,81.000015 1.000002,1.000018 
	C80.999992,1.000012 160.999985,1.000012 240.999969,1.000006 
	C240.999985,80.999985 240.999985,160.999969 241.000000,240.999969 
	C214.166672,241.000000 187.333328,241.000000 160.000000,241.000000 
M126.058418,196.324753 
	C144.973007,201.194717 163.887589,206.064667 182.679352,210.903015 
	C183.079773,210.277435 183.335709,210.025864 183.418991,209.726288 
	C189.328079,188.469254 195.265503,167.219772 201.029663,145.923416 
	C201.433746,144.430466 200.959396,142.365189 200.190201,140.947708 
	C197.022156,135.109497 193.431641,129.497650 190.352646,123.616104 
	C189.617355,122.211571 189.638702,119.770065 190.370667,118.351891 
	C193.185852,112.897408 196.251053,107.548332 199.587845,102.396225 
	C201.380341,99.628532 201.625809,97.149155 200.740707,94.053551 
	C196.270737,78.420174 191.985260,62.734119 187.613312,47.072617 
	C186.116730,41.711491 184.556976,36.368000 183.035736,31.050144 
	C162.972122,36.161530 143.556305,41.275436 124.041992,45.980923 
	C117.898979,47.462185 113.128754,49.686775 110.652168,56.062218 
	C109.048264,60.191135 106.037773,63.751499 104.034760,67.755333 
	C102.699852,70.423698 100.922165,71.141045 98.107361,71.050461 
	C92.115631,70.857643 86.096016,70.728271 80.124084,71.122284 
	C77.765038,71.277924 74.963448,72.336449 73.288689,73.946411 
	C65.725372,81.217117 58.619442,88.961708 51.108112,96.288910 
	C42.909290,104.286720 34.445576,112.012993 25.923767,120.020721 
	C41.157227,135.535706 55.382465,149.561707 69.007515,164.148315 
	C73.856247,169.339233 78.783180,172.422470 85.819565,170.978195 
	C98.310684,168.414322 106.326004,173.377472 110.345154,185.224823 
	C112.778008,192.396240 118.151840,195.412842 126.058418,196.324753 
z"/>
<path fill="#040404" opacity="1.000000" stroke="none" 
	d="
M125.658310,196.223663 
	C118.151840,195.412842 112.778008,192.396240 110.345154,185.224823 
	C106.326004,173.377472 98.310684,168.414322 85.819565,170.978195 
	C78.783180,172.422470 73.856247,169.339233 69.007515,164.148315 
	C55.382465,149.561707 41.157227,135.535706 25.923767,120.020721 
	C34.445576,112.012993 42.909290,104.286720 51.108112,96.288910 
	C58.619442,88.961708 65.725372,81.217117 73.288689,73.946411 
	C74.963448,72.336449 77.765038,71.277924 80.124084,71.122284 
	C86.096016,70.728271 92.115631,70.857643 98.107361,71.050461 
	C100.922165,71.141045 102.699852,70.423698 104.034760,67.755333 
	C106.037773,63.751499 109.048264,60.191135 110.652168,56.062218 
	C113.128754,49.686775 117.898979,47.462185 124.041992,45.980923 
	C143.556305,41.275436 162.972122,36.161530 183.035736,31.050144 
	C184.556976,36.368000 186.116730,41.711491 187.613312,47.072617 
	C191.985260,62.734119 196.270737,78.420174 200.740707,94.053551 
	C201.625809,97.149155 201.380341,99.628532 199.587845,102.396225 
	C196.251053,107.548332 193.185852,112.897408 190.370667,118.351891 
	C189.638702,119.770065 189.617355,122.211571 190.352646,123.616104 
	C193.431641,129.497650 197.022156,135.109497 200.190201,140.947708 
	C200.959396,142.365189 201.433746,144.430466 201.029663,145.923416 
	C195.265503,167.219772 189.328079,188.469254 183.418991,209.726288 
	C183.335709,210.025864 183.079773,210.277435 182.679352,210.903015 
	C163.887589,206.064667 144.973007,201.194717 125.658310,196.223663 
M125.978661,67.451492 
	C120.370712,68.959656 114.651459,70.154144 109.195389,72.090294 
	C105.766830,73.306961 102.234383,75.105026 99.614380,77.564583 
	C91.248787,85.417862 83.309906,93.724411 75.158112,101.807381 
	C72.386246,104.555832 69.471542,107.160225 65.581734,110.805397 
	C67.925766,110.940971 68.522354,111.005455 69.118958,111.005630 
	C86.755798,111.010735 104.393402,110.927544 122.028732,111.090538 
	C124.938057,111.117416 126.015747,109.696655 127.235283,107.561798 
	C135.549835,93.006653 143.966278,78.509743 152.330551,63.982929 
	C152.994476,62.829876 153.512604,61.592892 154.351944,59.876656 
	C144.651474,62.448452 135.705215,64.820290 125.978661,67.451492 
M73.244728,138.246658 
	C80.787018,145.770111 88.654114,153.001785 95.762619,160.914917 
	C100.892380,166.625336 106.837555,169.780106 114.200775,171.517471 
	C127.531837,174.662903 140.704666,178.479004 154.725189,182.223892 
	C145.011429,165.343521 135.797256,149.212936 126.377365,133.203400 
	C125.681190,132.020218 123.516930,131.119324 122.013985,131.087494 
	C112.862686,130.893661 103.705246,130.989365 94.549858,130.989014 
	C85.480415,130.988647 76.410973,130.988937 67.341530,130.988937 
	C67.045898,131.447464 66.750267,131.905975 66.454636,132.364502 
	C68.549477,134.157303 70.644318,135.950089 73.244728,138.246658 
M147.989899,111.488602 
	C147.243774,112.785339 146.685150,114.246582 145.717773,115.349205 
	C142.267700,119.281609 143.259644,122.743279 145.772064,126.898643 
	C154.027267,140.552124 161.871521,154.453918 169.899033,168.245544 
	C170.499313,169.276825 171.300293,170.191299 172.075577,171.252609 
	C172.489609,170.751022 172.634857,170.651291 172.669907,170.521744 
	C175.444000,160.263474 177.567825,149.773270 181.136536,139.800049 
	C185.694275,127.062820 185.700699,114.926369 181.135300,102.185814 
	C177.493484,92.022743 175.296234,81.342033 172.165131,69.813637 
	C163.826797,84.192970 156.095840,97.524918 147.989899,111.488602 
z"/>
<path fill="#FAFAFA" opacity="1.000000" stroke="none" 
	d="
M126.368813,67.321808 
	C135.705215,64.820290 144.651474,62.448452 154.351944,59.876656 
	C153.512604,61.592892 152.994476,62.829876 152.330551,63.982929 
	C143.966278,78.509743 135.549835,93.006653 127.235283,107.561798 
	C126.015747,109.696655 124.938057,111.117416 122.028732,111.090538 
	C104.393402,110.927544 86.755798,111.010735 69.118958,111.005630 
	C68.522354,111.005455 67.925766,110.940971 65.581734,110.805397 
	C69.471542,107.160225 72.386246,104.555832 75.158112,101.807381 
	C83.309906,93.724411 91.248787,85.417862 99.614380,77.564583 
	C102.234383,75.105026 105.766830,73.306961 109.195389,72.090294 
	C114.651459,70.154144 120.370712,68.959656 126.368813,67.321808 
z"/>
<path fill="#FBFBFB" opacity="1.000000" stroke="none" 
	d="
M72.991943,137.994766 
	C70.644318,135.950089 68.549477,134.157303 66.454636,132.364502 
	C66.750267,131.905975 67.045898,131.447464 67.341530,130.988937 
	C76.410973,130.988937 85.480415,130.988647 94.549858,130.989014 
	C103.705246,130.989365 112.862686,130.893661 122.013985,131.087494 
	C123.516930,131.119324 125.681190,132.020218 126.377365,133.203400 
	C135.797256,149.212936 145.011429,165.343521 154.725189,182.223892 
	C140.704666,178.479004 127.531837,174.662903 114.200775,171.517471 
	C106.837555,169.780106 100.892380,166.625336 95.762619,160.914917 
	C88.654114,153.001785 80.787018,145.770111 72.991943,137.994766 
z"/>
<path fill="#FBFBFB" opacity="1.000000" stroke="none" 
	d="
M148.177383,111.172737 
	C156.095840,97.524918 163.826797,84.192970 172.165131,69.813637 
	C175.296234,81.342033 177.493484,92.022743 181.135300,102.185814 
	C185.700699,114.926369 185.694275,127.062820 181.136536,139.800049 
	C177.567825,149.773270 175.444000,160.263474 172.669907,170.521744 
	C172.634857,170.651291 172.489609,170.751022 172.075577,171.252609 
	C171.300293,170.191299 170.499313,169.276825 169.899033,168.245544 
	C161.871521,154.453918 154.027267,140.552124 145.772064,126.898643 
	C143.259644,122.743279 142.267700,119.281609 145.717773,115.349205 
	C146.685150,114.246582 147.243774,112.785339 148.177383,111.172737 
z"/>
</svg>